<svg width="24" height="24" viewBox="0 0 24 24" fill="none" xmlns="http://www.w3.org/2000/svg">
<path d="M12 0C18.6274 0 24 5.37258 24 12C24 18.6274 18.6274 24 12 24C5.37258 24 0 18.6274 0 12C0 5.37258 5.37258 0 12 0Z" fill="#3377FF"/>
<path d="M14.6094 13.2266H16.9453C16.8984 13.9922 16.6875 14.6719 16.3125 15.2656C15.9427 15.8594 15.4245 16.3229 14.7578 16.6562C14.0964 16.9896 13.2995 17.1562 12.3672 17.1562C11.638 17.1562 10.9844 17.0312 10.4062 16.7812C9.82812 16.526 9.33333 16.1615 8.92188 15.6875C8.51562 15.2135 8.20573 14.6406 7.99219 13.9688C7.77865 13.2969 7.67188 12.5443 7.67188 11.7109V10.9219C7.67188 10.0885 7.78125 9.33594 8 8.66406C8.22396 7.98698 8.54167 7.41146 8.95312 6.9375C9.36979 6.46354 9.86719 6.09896 10.4453 5.84375C11.0234 5.58854 11.6693 5.46094 12.3828 5.46094C13.3307 5.46094 14.1302 5.63281 14.7812 5.97656C15.4375 6.32031 15.9453 6.79427 16.3047 7.39844C16.6693 8.0026 16.888 8.6901 16.9609 9.46094H14.6172C14.5911 9.0026 14.5 8.61458 14.3438 8.29688C14.1875 7.97396 13.9505 7.73177 13.6328 7.57031C13.3203 7.40365 12.9036 7.32031 12.3828 7.32031C11.9922 7.32031 11.651 7.39323 11.3594 7.53906C11.0677 7.6849 10.8229 7.90625 10.625 8.20312C10.4271 8.5 10.2786 8.875 10.1797 9.32812C10.0859 9.77604 10.0391 10.3021 10.0391 10.9062V11.7109C10.0391 12.2995 10.0833 12.8177 10.1719 13.2656C10.2604 13.7083 10.3958 14.0833 10.5781 14.3906C10.7656 14.6927 11.0052 14.9219 11.2969 15.0781C11.5938 15.2292 11.9505 15.3047 12.3672 15.3047C12.8568 15.3047 13.2604 15.2266 13.5781 15.0703C13.8958 14.9141 14.138 14.6823 14.3047 14.375C14.4766 14.0677 14.5781 13.6849 14.6094 13.2266Z" fill="white"/>
</svg>
