<svg width="241" height="240" viewBox="0 0 241 240" fill="none" xmlns="http://www.w3.org/2000/svg">
<g clip-path="url(#clip0_2382_26268)">
<path d="M48.4998 125.947C29.59 144.734 21.0818 163.368 28.121 175.736C40.0758 196.741 92.3457 191.716 144.869 164.514C197.393 137.311 230.28 98.2319 218.325 77.2275C216.967 74.8417 215.089 72.7916 212.75 71.0718" stroke="#ADADAD" stroke-width="1.5"/>
<path d="M224.376 70.9474C226.716 72.6672 228.594 74.7173 229.952 77.1031C234.385 84.8924 232.651 95.1673 226.037 106.4" stroke="#ADADAD" stroke-width="1.1"/>
<path d="M53.5355 134C43.6639 143.807 36.6269 153.573 33.1567 162.428" stroke="#ADADAD" stroke-width="1.1"/>
<path d="M78.4048 204.501C101.169 223.449 138.186 218.927 154.635 182.614C167.066 155.174 211.889 162.354 217.267 122.856C220.275 100.768 206.182 68.73 151.405 67.1014C108.671 65.8309 107.456 38.0853 66.6561 45.4853C25.0773 53.0266 24.7848 99.629 55.4579 135.153C83.6372 167.789 50.0407 180.893 78.4048 204.501Z" fill="#323232"/>
<path d="M121.904 163.805L76.4638 167.467C73.9178 167.673 71.657 165.848 71.3201 163.316L60.3628 80.9602C60.0032 78.257 61.965 75.7977 64.6804 75.5474L69.9038 75.066" stroke="#ADADAD" stroke-width="1.428"/>
<path d="M77.2797 60.0056C76.9694 57.694 78.6535 55.5919 80.9771 55.3905L127.485 51.359L150.927 69.7023L162.301 142.885C162.667 145.236 160.955 147.4 158.584 147.587L93.62 152.699C91.4568 152.869 89.5378 151.319 89.2491 149.168L77.2797 60.0056Z" fill="#454545" stroke="#ADADAD" stroke-width="1.42671"/>
<path d="M96.932 130.591C96.6999 128.754 98.0714 127.103 99.9203 126.995L139.54 124.682C141.174 124.587 142.616 125.739 142.884 127.354L143.724 132.424C144.034 134.292 142.662 136.02 140.771 136.14L100.98 138.682C99.2931 138.79 97.8133 137.567 97.6014 135.889L96.932 130.591Z" fill="#353535"/>
<path d="M92.4638 97.2577C92.2809 95.4465 93.6424 93.834 95.4597 93.7279L135.27 91.4038C136.846 91.3118 138.24 92.4175 138.51 93.9732C138.825 95.7926 137.492 97.483 135.649 97.6007L95.8529 100.142C94.1349 100.252 92.6368 98.9704 92.4638 97.2577Z" fill="#3A3A3A"/>
<path d="M94.0629 109.644C93.8801 107.834 95.2407 106.232 97.0567 106.124L112.058 105.234C113.641 105.14 115.042 106.25 115.312 107.813C115.627 109.63 114.303 111.321 112.464 111.452L97.4741 112.518C95.7481 112.641 94.2367 111.366 94.0629 109.644Z" fill="#3A3A3A"/>
<path d="M100.863 73.0933C99.9918 73.171 99.3603 73.957 99.472 74.8241L100.502 82.8178C100.609 83.6415 101.349 84.2327 102.176 84.1539L112.16 83.2029C113.05 83.118 113.682 82.2943 113.532 81.412L112.19 73.5064C112.055 72.7145 111.335 72.1589 110.534 72.2303L100.863 73.0933Z" fill="#3D3D3D" stroke="#ADADAD" stroke-width="1.48"/>
<circle cx="96.8994" cy="72.8066" r="7.28664" stroke="#ADADAD" stroke-width="1.42671"/>
<path d="M129.881 68.1961L127.5 52.2002L150.9 70.4002L133.141 70.9235C131.52 70.9713 130.12 69.7996 129.881 68.1961Z" fill="#5C5C5C"/>
<mask id="path-13-inside-1_2382_26268" fill="white">
<path fill-rule="evenodd" clip-rule="evenodd" d="M189.264 123.431C186.769 138.165 173.947 149.385 158.503 149.385C141.272 149.385 127.303 135.417 127.303 118.185C127.303 105.679 134.661 94.892 145.284 89.916C131.826 94.2999 122.1 106.949 122.1 121.87C122.1 140.427 137.143 155.47 155.7 155.47C173.733 155.47 188.449 141.264 189.264 123.431Z"/>
</mask>
<path fill-rule="evenodd" clip-rule="evenodd" d="M189.264 123.431C186.769 138.165 173.947 149.385 158.503 149.385C141.272 149.385 127.303 135.417 127.303 118.185C127.303 105.679 134.661 94.892 145.284 89.916C131.826 94.2999 122.1 106.949 122.1 121.87C122.1 140.427 137.143 155.47 155.7 155.47C173.733 155.47 188.449 141.264 189.264 123.431Z" fill="#3D3D3D"/>
<path d="M189.264 123.431L190.689 123.497L187.857 123.193L189.264 123.431ZM145.284 89.916L145.889 91.208L144.842 88.5595L145.284 89.916ZM187.857 123.193C185.477 137.252 173.239 147.959 158.503 147.959V150.812C174.654 150.812 188.062 139.078 190.671 123.67L187.857 123.193ZM158.503 147.959C142.06 147.959 128.73 134.629 128.73 118.185H125.876C125.876 136.205 140.484 150.812 158.503 150.812V147.959ZM128.73 118.185C128.73 106.253 135.749 95.958 145.889 91.208L144.679 88.624C133.573 93.826 125.876 105.105 125.876 118.185H128.73ZM123.526 121.87C123.526 107.585 132.838 95.4708 145.726 91.2726L144.842 88.5595C130.814 93.129 120.673 106.314 120.673 121.87H123.526ZM155.7 154.044C137.931 154.044 123.526 139.639 123.526 121.87H120.673C120.673 141.215 136.355 156.897 155.7 156.897V154.044ZM187.839 123.366C187.058 140.44 172.967 154.044 155.7 154.044V156.897C174.499 156.897 189.839 142.087 190.689 123.497L187.839 123.366Z" fill="#ADADAD" mask="url(#path-13-inside-1_2382_26268)"/>
<rect x="171.059" y="145.474" width="11.88" height="31.88" rx="5.54" transform="rotate(-38.8016 171.059 145.474)" fill="#707070" stroke="#ADADAD" stroke-width="1.48"/>
<circle cx="158.704" cy="118.2" r="31.8866" fill="#707070" stroke="#ADADAD" stroke-width="1.42671"/>
<circle cx="158.7" cy="118.077" r="27.4" fill="#565656"/>
<mask id="mask0_2382_26268" style="mask-type:alpha" maskUnits="userSpaceOnUse" x="131" y="90" width="56" height="56">
<circle cx="158.7" cy="118.077" r="27.4" fill="#3D3D3D"/>
</mask>
<g mask="url(#mask0_2382_26268)">
<path d="M170.274 146.044C166.236 144.831 128.852 109.645 110.665 92.2039L114.235 87.952L181.212 148.688L170.274 146.044Z" fill="white" fill-opacity="0.06"/>
<path d="M194.689 146.839L125.702 83.9573L155.274 89.2887L207.87 138.116L194.689 146.839Z" fill="white" fill-opacity="0.06"/>
<path d="M121.076 107.832L161.902 146.044L145.702 159.877L115.893 123.264L121.076 107.832Z" fill="white" fill-opacity="0.06"/>
</g>
<path d="M127.7 52.0068L129.907 68.1315C130.13 69.7629 131.555 70.9586 133.2 70.8953L151.1 70.2068" stroke="#ADADAD" stroke-width="1.42671"/>
<path d="M139.221 46.0965L138.7 37.2068" stroke="#ADADAD" stroke-width="0.75"/>
<path d="M153.689 57.3848L162.9 56.0065" stroke="#ADADAD" stroke-width="0.75"/>
<path d="M147.765 50.083L155.9 41.8068" stroke="#ADADAD" stroke-width="0.75"/>
<path d="M218.325 77.2275C230.28 98.2319 197.393 137.311 144.869 164.514C92.3458 191.716 40.0758 196.741 28.1211 175.736" stroke="#ADADAD" stroke-width="1.5"/>
<circle cx="3.66538" cy="3.66538" r="5.80765" transform="matrix(0.998833 -0.0483049 0.0411211 0.999154 24.0996 149.154)" fill="#707070" stroke="#1F1F1F" stroke-width="4.28455"/>
<path d="M156.3 195.6L158.731 202.169L165.3 204.6L158.731 207.03L156.3 213.6L153.869 207.03L147.3 204.6L153.869 202.169L156.3 195.6Z" fill="#ADADAD"/>
<path d="M47.9873 36.7998L49.2534 40.2213L52.6748 41.4873L49.2534 42.7534L47.9873 46.1748L46.7213 42.7534L43.2998 41.4873L46.7213 40.2213L47.9873 36.7998Z" fill="#ADADAD"/>
<circle cx="197.226" cy="56.7936" r="7.5934" fill="#707070"/>
<path d="M202.569 51.3978C203.666 51.1111 204.612 50.9638 205.355 50.9566C205.835 50.9519 206.197 51.0063 206.451 51.0969C206.7 51.1859 206.804 51.2939 206.849 51.3799C206.922 51.516 206.955 51.8209 206.645 52.4034C206.349 52.9627 205.804 53.6417 205.022 54.3956C203.466 55.8974 201.076 57.597 198.218 59.1208C195.36 60.6446 192.617 61.6825 190.503 62.138C189.441 62.3667 188.574 62.4407 187.944 62.3755C187.288 62.3077 187.053 62.1108 186.98 61.9747C186.933 61.8856 186.9 61.7302 186.976 61.4548C187.052 61.1756 187.229 60.8222 187.528 60.4025C188.012 59.7238 188.766 58.9421 189.747 58.1134C189.672 57.6848 189.633 57.2438 189.633 56.7937C189.633 56.735 189.634 56.6765 189.635 56.6181C188.285 57.6796 187.206 58.7346 186.526 59.688C186.18 60.1736 185.918 60.6599 185.789 61.1288C185.659 61.6017 185.654 62.1032 185.894 62.5538C186.261 63.2423 187.032 63.5185 187.817 63.5998C188.629 63.6837 189.639 63.5831 190.762 63.3412C193.016 62.8555 195.868 61.7686 198.797 60.2068C201.726 58.645 204.218 56.8825 205.877 55.2813C206.704 54.4837 207.35 53.7011 207.733 52.9803C208.103 52.2828 208.303 51.4893 207.935 50.8008C207.705 50.368 207.308 50.0964 206.865 49.938C206.427 49.7812 205.906 49.7205 205.343 49.7259C204.261 49.7364 202.905 49.9936 201.401 50.4494C201.821 50.7267 202.213 51.0447 202.569 51.3978Z" fill="#3D3D3D"/>
</g>
<defs>
<clipPath id="clip0_2382_26268">
<rect width="240" height="240" fill="white" transform="translate(0.5)"/>
</clipPath>
</defs>
</svg>
