<svg width="241" height="240" viewBox="0 0 241 240" fill="none" xmlns="http://www.w3.org/2000/svg">
<g clip-path="url(#clip0_2028_52492)">
<path d="M48.5 125.947C29.5902 144.733 21.082 163.368 28.1213 175.736C40.076 196.74 92.3459 191.716 144.869 164.513C197.393 137.311 230.28 98.2316 218.326 77.2273C216.968 74.8414 215.09 72.7914 212.75 71.0716" stroke="#5C5551" stroke-width="1.5"/>
<path d="M224.376 70.9469C226.715 72.6667 228.593 74.7168 229.951 77.1026C234.384 84.8919 232.651 95.1668 226.036 106.4" stroke="#5C5551" stroke-width="1.1"/>
<path d="M53.5357 134C43.6641 143.807 36.6272 153.573 33.157 162.428" stroke="#5C5551" stroke-width="1.1"/>
<path d="M78.405 204.502C101.169 223.449 138.186 218.927 154.636 182.614C167.066 155.174 211.889 162.354 217.267 122.856C220.275 100.768 206.183 68.7303 151.405 67.1016C108.671 65.8311 107.456 38.0856 66.6564 45.4856C25.0776 53.0268 24.785 99.6292 55.4581 135.153C83.6375 167.789 50.041 180.893 78.405 204.502Z" fill="#F6F6F6"/>
<path d="M121.904 163.804L76.4636 167.467C73.9175 167.672 71.6567 165.847 71.3199 163.316L60.3626 80.9597C60.003 78.2566 61.9647 75.7972 64.6802 75.5469L69.9035 75.0655" stroke="#5C5551" stroke-width="1.428"/>
<path d="M77.2799 60.0063C76.9696 57.6947 78.6537 55.5926 80.9773 55.3912L127.485 51.3597L150.927 69.7031L162.301 142.886C162.667 145.237 160.955 147.401 158.584 147.588L93.6202 152.699C91.4571 152.87 89.538 151.32 89.2493 149.169L77.2799 60.0063Z" fill="white" stroke="#5C5551" stroke-width="1.42671"/>
<path d="M96.9325 130.591C96.7004 128.754 98.0718 127.103 99.9208 126.995L139.541 124.682C141.174 124.587 142.616 125.739 142.884 127.354L143.725 132.424C144.035 134.292 142.662 136.02 140.772 136.14L100.981 138.682C99.2936 138.79 97.8138 137.567 97.6019 135.889L96.9325 130.591Z" fill="#ADADAD"/>
<path d="M92.4643 97.258C92.2814 95.4467 93.6429 93.8342 95.4602 93.7281L135.271 91.4041C136.847 91.3121 138.241 92.4178 138.51 93.9735C138.825 95.7928 137.492 97.4832 135.649 97.6009L95.8534 100.143C94.1354 100.252 92.6373 98.9707 92.4643 97.258Z" fill="#EBEBEB"/>
<path d="M94.0629 109.644C93.8801 107.834 95.2407 106.232 97.0567 106.124L112.058 105.234C113.641 105.14 115.042 106.25 115.312 107.813C115.627 109.63 114.303 111.321 112.464 111.452L97.4741 112.518C95.7481 112.641 94.2367 111.366 94.0629 109.644Z" fill="#EBEBEB"/>
<path d="M100.863 73.0933C99.9923 73.171 99.3608 73.957 99.4725 74.8241L100.503 82.8178C100.609 83.6415 101.349 84.2327 102.176 84.1539L112.16 83.2029C113.051 83.118 113.682 82.2943 113.532 81.412L112.19 73.5064C112.056 72.7145 111.335 72.1589 110.535 72.2303L100.863 73.0933Z" fill="#ADADAD" stroke="#5C5551" stroke-width="1.48"/>
<circle cx="96.9001" cy="72.8071" r="7.28664" stroke="#5C5551" stroke-width="1.42671"/>
<path d="M129.881 68.1961L127.5 52.2002L150.9 70.4002L133.141 70.9235C131.52 70.9713 130.12 69.7996 129.881 68.1961Z" fill="#EBEBEB"/>
<mask id="path-13-inside-1_2028_52492" fill="white">
<path fill-rule="evenodd" clip-rule="evenodd" d="M189.264 123.431C186.77 138.165 173.947 149.386 158.504 149.386C141.272 149.386 127.304 135.417 127.304 118.186C127.304 105.68 134.661 94.8923 145.284 89.9163C131.826 94.3001 122.1 106.95 122.1 121.871C122.1 140.427 137.143 155.471 155.7 155.471C173.734 155.471 188.449 141.264 189.264 123.431Z"/>
</mask>
<path fill-rule="evenodd" clip-rule="evenodd" d="M189.264 123.431C186.77 138.165 173.947 149.386 158.504 149.386C141.272 149.386 127.304 135.417 127.304 118.186C127.304 105.68 134.661 94.8923 145.284 89.9163C131.826 94.3001 122.1 106.95 122.1 121.871C122.1 140.427 137.143 155.471 155.7 155.471C173.734 155.471 188.449 141.264 189.264 123.431Z" fill="#ADADAD"/>
<path d="M189.264 123.431L190.69 123.497L187.858 123.193L189.264 123.431ZM145.284 89.9163L145.889 91.2082L144.842 88.5597L145.284 89.9163ZM187.858 123.193C185.478 137.252 173.24 147.959 158.504 147.959V150.812C174.655 150.812 188.062 139.078 190.671 123.67L187.858 123.193ZM158.504 147.959C142.06 147.959 128.73 134.629 128.73 118.186H125.877C125.877 136.205 140.484 150.812 158.504 150.812V147.959ZM128.73 118.186C128.73 106.254 135.749 95.9583 145.889 91.2082L144.679 88.6243C133.574 93.8263 125.877 105.106 125.877 118.186H128.73ZM123.527 121.871C123.527 107.585 132.838 95.471 145.726 91.2728L144.842 88.5597C130.814 93.1293 120.673 106.314 120.673 121.871H123.527ZM155.7 154.044C137.931 154.044 123.527 139.639 123.527 121.871H120.673C120.673 141.215 136.355 156.897 155.7 156.897V154.044ZM187.839 123.366C187.059 140.44 172.968 154.044 155.7 154.044V156.897C174.5 156.897 189.84 142.087 190.69 123.497L187.839 123.366Z" fill="#5C5551" mask="url(#path-13-inside-1_2028_52492)"/>
<rect x="171.06" y="145.475" width="11.88" height="31.88" rx="5.54" transform="rotate(-38.8016 171.06 145.475)" fill="#ADADAD" stroke="#5C5551" stroke-width="1.48"/>
<circle cx="158.704" cy="118.2" r="31.8866" fill="white" stroke="#5C5551" stroke-width="1.42671"/>
<circle cx="158.7" cy="118.078" r="27.4" fill="#EBEBEB"/>
<mask id="mask0_2028_52492" style="mask-type:alpha" maskUnits="userSpaceOnUse" x="131" y="90" width="56" height="56">
<circle cx="158.7" cy="118.078" r="27.4" fill="#EBEBEB"/>
</mask>
<g mask="url(#mask0_2028_52492)">
<path d="M170.274 146.045C166.236 144.832 128.852 109.646 110.665 92.2049L114.235 87.953L181.212 148.689L170.274 146.045Z" fill="white" fill-opacity="0.8"/>
<path d="M194.689 146.84L125.702 83.9583L155.274 89.2897L207.87 138.117L194.689 146.84Z" fill="white" fill-opacity="0.8"/>
<path d="M121.076 107.833L161.902 146.045L145.702 159.878L115.893 123.265L121.076 107.833Z" fill="white" fill-opacity="0.8"/>
</g>
<path d="M127.7 52.0071L129.906 68.1318C130.13 69.7631 131.555 70.9588 133.2 70.8955L151.1 70.2071" stroke="#5C5551" stroke-width="1.42671"/>
<path d="M139.221 46.0968L138.7 37.2071" stroke="#5C5551" stroke-width="0.75"/>
<path d="M153.689 57.3853L162.9 56.007" stroke="#5C5551" stroke-width="0.75"/>
<path d="M147.764 50.0833L155.9 41.8071" stroke="#5C5551" stroke-width="0.75"/>
<path d="M218.326 77.2275C230.28 98.2319 197.393 137.311 144.869 164.514C92.346 191.716 40.0761 196.741 28.1213 175.736" stroke="#5C5551" stroke-width="1.5"/>
<circle cx="3.66538" cy="3.66538" r="5.80765" transform="matrix(0.998833 -0.0483049 0.0411211 0.999154 24.1001 149.154)" fill="#ADADAD" stroke="white" stroke-width="4.28455"/>
<path d="M156.3 195.6L158.731 202.169L165.3 204.6L158.731 207.031L156.3 213.6L153.869 207.031L147.3 204.6L153.869 202.169L156.3 195.6Z" fill="#5C5551"/>
<path d="M47.9875 36.8L49.2536 40.2215L52.675 41.4875L49.2536 42.7536L47.9875 46.175L46.7215 42.7536L43.3 41.4875L46.7215 40.2215L47.9875 36.8Z" fill="#5C5551"/>
<circle cx="197.226" cy="56.7933" r="7.5934" fill="#ADADAD"/>
<path d="M202.569 51.3973C203.666 51.1106 204.612 50.9633 205.355 50.9561C205.835 50.9515 206.197 51.0058 206.451 51.0964C206.699 51.1854 206.803 51.2934 206.849 51.3794C206.922 51.5156 206.954 51.8204 206.645 52.4029C206.348 52.9622 205.803 53.6412 205.022 54.3952C203.466 55.8969 201.075 57.5965 198.218 59.1203C195.36 60.6441 192.617 61.682 190.502 62.1376C189.441 62.3662 188.573 62.4402 187.944 62.3751C187.288 62.3072 187.053 62.1104 186.98 61.9742C186.933 61.8851 186.9 61.7297 186.975 61.4544C187.052 61.1751 187.229 60.8217 187.528 60.402C188.012 59.7233 188.765 58.9416 189.747 58.1129C189.672 57.6843 189.633 57.2433 189.633 56.7932C189.633 56.7345 189.634 56.676 189.635 56.6177C188.285 57.6791 187.206 58.7341 186.526 59.6875C186.18 60.1731 185.917 60.6594 185.789 61.1283C185.659 61.6013 185.654 62.1027 185.894 62.5533C186.261 63.2418 187.031 63.518 187.817 63.5993C188.629 63.6833 189.639 63.5826 190.762 63.3407C193.016 62.855 195.868 61.7681 198.797 60.2063C201.726 58.6445 204.217 56.882 205.877 55.2808C206.703 54.4832 207.35 53.7006 207.732 52.9799C208.102 52.2823 208.302 51.4888 207.935 50.8003C207.704 50.3675 207.308 50.0959 206.865 49.9375C206.426 49.7807 205.906 49.72 205.343 49.7254C204.261 49.7359 202.904 49.9931 201.4 50.449C201.821 50.7262 202.212 51.0442 202.569 51.3973Z" fill="#F6F6F6"/>
</g>
<defs>
<clipPath id="clip0_2028_52492">
<rect width="240" height="240" fill="white" transform="translate(0.5)"/>
</clipPath>
</defs>
</svg>
