<svg width="640" height="400" viewBox="0 0 640 400" fill="none" xmlns="http://www.w3.org/2000/svg">
<g clip-path="url(#clip0_2689_50641)">
<rect width="640" height="400" fill="url(#paint0_linear_2689_50641)"/>
<path opacity="0.1" fill-rule="evenodd" clip-rule="evenodd" d="M36.0001 400V390H0V388H36.0001L36.0001 346H0V344H36.0001L36.0001 302H0V300H36.0001L36 258H0V256H36L36 214H0V212H36L36 170H0V168H36L36 126H0V124H36L36 82.0001H0V80.0001H36L36 38.0001L0 38.0001V36.0001L36 36.0001L36 0H38L38 36.0001L80 36.0001L80 0H82L82 36.0001L124 36.0001L124 0H126L126 36.0001L168 36.0001V0H170V36.0001L212 36V0H214V36L256 36V0H258V36L300 36V0H302V36L344 36V0H346V36L388 36V0H390V36L432 36V0H434V36L476 36V0H478V36L520 36V0H522V36L564 36V0H566V36L608 36V0H610V36L652 36V0H654V36L696 36V0H698V36L740 36V0H742V36L760 36V38L742 38V80H760V82H742V124H760V126H742V168H760V170H742L742 212H760V214H742V256H760V258H742V300H760V302H742V344H760V346H742V388H760V390H742V400H740V390L698 390V400H696V390H654V400H652V390L610 390V400H608V390H566V400H564V390H522V400H520V390H478V400H476V390H434V400H432V390H390V400H388V390H346V400H344V390H302V400H300V390H258V400H256V390H214V400H212V390H170V400H168V390H126V400H124V390H82.0001V400H80.0001V390H38.0001V400H36.0001ZM698 38L740 38V80L698 80V38ZM698 82L740 82V124L698 124V82ZM698 126L740 126V168L698 168V126ZM698 170L740 170L740 212L698 212L698 170ZM698 214L740 214V256L698 256V214ZM698 258L740 258V300L698 300V258ZM698 302L740 302V344L698 344V302ZM698 346L740 346V388L698 388V346ZM696 388V346H654V388H696ZM696 344V302H654V344H696ZM696 300V258H654V300H696ZM696 256V214H654V256H696ZM696 212L696 170H654L654 212H696ZM696 168V126H654V168H696ZM696 124V82H654V124H696ZM696 80V38L654 38V80H696ZM610 38L652 38V80L610 80V38ZM610 82L652 82V124L610 124V82ZM610 126L652 126V168L610 168V126ZM610 170L652 170L652 212L610 212L610 170ZM610 214L652 214V256L610 256V214ZM610 258L652 258V300L610 300V258ZM610 302L652 302V344L610 344V302ZM610 346L652 346V388L610 388V346ZM608 388V346H566V388H608ZM608 344V302H566V344H608ZM608 300V258H566V300H608ZM608 256V214H566V256H608ZM608 212L608 170H566L566 212H608ZM608 168V126H566V168H608ZM608 124V82H566V124H608ZM608 80V38L566 38V80H608ZM522 38L564 38V80L522 80V38ZM522 82L564 82V124L522 124V82ZM522 126L564 126V168L522 168V126ZM522 170L564 170L564 212L522 212L522 170ZM522 214L564 214V256H522V214ZM522 258H564V300H522V258ZM522 302H564V344H522V302ZM522 346H564V388H522V346ZM520 388V346H478V388H520ZM520 344V302H478V344H520ZM520 300V258H478L478 300H520ZM520 256V214H478V256H520ZM520 212L520 170H478V212H520ZM520 168V126H478V168H520ZM520 124V82H478L478 124H520ZM520 80V38L478 38V80H520ZM434 38L476 38V80L434 80V38ZM434 82L476 82L476 124L434 124L434 82ZM434 126L476 126V168L434 168V126ZM434 170L476 170V212L434 212V170ZM434 214L476 214V256H434V214ZM434 258H476L476 300H434L434 258ZM434 302H476V344H434V302ZM434 346H476V388H434V346ZM432 388V346H390V388H432ZM432 344V302H390V344H432ZM432 300L432 258H390L390 300H432ZM432 256V214H390V256H432ZM432 212V170H390V212H432ZM432 168V126H390V168H432ZM432 124L432 82H390L390 124H432ZM432 80V38L390 38V80H432ZM346 38L388 38V80L346 80V38ZM346 82L388 82L388 124L346 124L346 82ZM346 126L388 126V168H346V126ZM346 170H388V212H346V170ZM346 214H388V256H346V214ZM346 258H388L388 300H346L346 258ZM346 302H388V344H346V302ZM346 346H388V388H346V346ZM344 388V346H302V388H344ZM344 344V302H302V344H344ZM344 300L344 258H302L302 300H344ZM344 256V214H302V256H344ZM344 212V170H302V212H344ZM344 168V126H302V168H344ZM344 124L344 82H302L302 124H344ZM344 80V38L302 38V80H344ZM258 38L300 38V80L258 80V38ZM258 82L300 82L300 124L258 124L258 82ZM258 126L300 126V168H258V126ZM258 170H300V212H258V170ZM258 214H300V256H258V214ZM258 258H300L300 300H258L258 258ZM258 302H300V344H258V302ZM258 346H300V388H258V346ZM256 388V346H214L214 388H256ZM256 344V302H214V344H256ZM256 300L256 258H214V300H256ZM256 256V214H214L214 256H256ZM256 212V170H214V212H256ZM256 168V126H214L214 168H256ZM256 124L256 82H214V124H256ZM256 80V38L214 38L214 80H256ZM170 38.0001L212 38L212 80.0001H170L170 38.0001ZM170 82.0001H212V124H170V82.0001ZM170 126H212L212 168H170L170 126ZM170 170H212V212H170V170ZM170 214H212L212 256H170L170 214ZM170 258H212V300H170V258ZM170 302H212V344H170V302ZM170 346H212L212 388H170L170 346ZM168 388L168 346H126L126 388H168ZM168 344V302H126L126 344H168ZM168 300V258H126L126 300H168ZM168 256L168 214H126L126 256H168ZM168 212V170H126L126 212H168ZM168 168L168 126H126L126 168H168ZM168 124V82.0001H126L126 124H168ZM168 80.0001L168 38.0001L126 38.0001L126 80.0001H168ZM82 38.0001L124 38.0001L124 80.0001H82L82 38.0001ZM82 82.0001H124L124 124H82L82 82.0001ZM82 126H124L124 168H82L82 126ZM82 170H124L124 212H82L82 170ZM82 214H124L124 256H82L82 214ZM82 258H124L124 300H82.0001L82 258ZM82.0001 302H124L124 344H82.0001L82.0001 302ZM82.0001 346H124L124 388H82.0001L82.0001 346ZM80.0001 388L80.0001 346H38.0001L38.0001 388H80.0001ZM80.0001 344L80.0001 302H38.0001L38.0001 344H80.0001ZM80.0001 300L80 258H38L38.0001 300H80.0001ZM80 256L80 214H38L38 256H80ZM80 212L80 170H38L38 212H80ZM80 168L80 126L38 126L38 168H80ZM80 124L80 82.0001L38 82.0001L38 124L80 124ZM80 80.0001L80 38.0001L38 38.0001L38 80.0001L80 80.0001ZM784 0L784 400H786L786 0H784Z" fill="url(#paint1_linear_2689_50641)"/>
</g>
<defs>
<linearGradient id="paint0_linear_2689_50641" x1="261.895" y1="-8.2107e-07" x2="401.996" y2="457.295" gradientUnits="userSpaceOnUse">
<stop stop-color="#F1FCFF" stop-opacity="0.86"/>
<stop offset="1" stop-color="#D8F1FF" stop-opacity="0.93"/>
</linearGradient>
<linearGradient id="paint1_linear_2689_50641" x1="380" y1="1.22749e-06" x2="424" y2="408" gradientUnits="userSpaceOnUse">
<stop stop-color="#C0ECFF"/>
<stop offset="1" stop-color="#4DAED8"/>
</linearGradient>
<clipPath id="clip0_2689_50641">
<rect width="640" height="400" fill="white"/>
</clipPath>
</defs>
</svg>
