<svg width="224" height="156" viewBox="0 0 224 156" fill="none" xmlns="http://www.w3.org/2000/svg">
<path d="M133.395 6.54514V1.14453" stroke="#5C5551" stroke-width="0.888889"/>
<path d="M141.047 6.54514L144.197 1.14453" stroke="#5C5551" stroke-width="0.888889"/>
<path d="M145.996 13.7455L152.297 11.9453" stroke="#5C5551" stroke-width="0.888889"/>
<path d="M54.6356 76.7539C48.0348 81.5544 33.5733 92.5057 28.5327 97.9063" stroke="#5C5551" stroke-width="0.888889"/>
<path d="M17.733 106.906C10.6822 113.357 -2.33921 128.509 1.98126 137.51C6.30173 146.511 46.3858 132.859 65.8878 124.908" stroke="#5C5551" stroke-width="0.888889"/>
<path d="M8.28174 151.011C11.132 153.411 18.9959 155.596 29.434 154.611C47.9675 152.863 64.5379 144.26 70.8386 139.76" stroke="#5C5551" stroke-width="0.888889"/>
<path d="M150.046 23.1976C163.847 17.3469 194.421 6.18564 206.302 8.34588" stroke="#5C5551" stroke-width="0.888889"/>
<path d="M213.054 21.8477C210.353 30.8487 195.502 46.1504 171.199 63.2523" stroke="#5C5551" stroke-width="0.888889"/>
<path d="M221.154 25.8965C224.604 28.7468 225.204 39.9381 200.001 61.9005" stroke="#5C5551" stroke-width="0.888889"/>
<path d="M174.799 82.1547C178.549 79.7545 186.41 74.2338 187.85 71.3535" stroke="#5C5551" stroke-width="0.888889"/>
<path d="M178.399 22.7484C184.25 20.7982 196.311 18.0679 197.752 22.7484C199.192 27.4289 187.55 37.9001 181.55 42.5506" stroke="#5C5551" stroke-width="0.888889"/>
<path d="M130.244 12.8457L57.3364 31.7478L85.6895 132.559" stroke="#5C5551" stroke-width="0.888889"/>
<path d="M125.745 22.7474L141.496 17.7969C144.23 27.5424 146.663 36.2138 148.946 44.3499M97.3916 137.06L169.399 117.258C168.439 113.833 167.515 110.54 166.622 107.357" stroke="#5C5551" stroke-width="0.888889"/>
<path d="M49.686 33.0977L74.8888 127.608" stroke="#5C5551" stroke-width="0.888889"/>
<path d="M82.0908 79.4528L109.544 72.252" stroke="#5C5551" stroke-width="0.888889"/>
<path d="M83.8892 88.9039L112.692 81.7031" stroke="#5C5551" stroke-width="0.888889"/>
<path d="M86.5908 97.9059L115.844 90.7051" stroke="#5C5551" stroke-width="0.888889"/>
<path d="M89.29 107.807L104.592 104.207" stroke="#5C5551" stroke-width="0.888889"/>
<path d="M94.2413 128.96L91.541 117.708L119.894 109.607L123.495 120.409L94.2413 128.96Z" fill="#64605D"/>
<path d="M89.291 63.7012L84.7905 47.0493L102.342 42.5488L106.393 58.3006L89.291 63.7012Z" fill="#ADADAD"/>
<path d="M96.9463 47.0498C96.9463 53.5003 91.5188 58.7567 84.7894 58.7567C78.0599 58.7567 72.6324 53.5003 72.6324 47.0498C72.6324 40.5993 78.0599 35.3429 84.7894 35.3429C91.5188 35.3429 96.9463 40.5993 96.9463 47.0498Z" stroke="#5C5551" stroke-width="0.888889"/>
<path d="M47.4355 96.1055C37.6845 103.456 18.6324 119.508 20.4326 124.909C22.2328 130.309 39.1846 124.759 47.4355 121.308" stroke="#5C5551" stroke-width="0.888889"/>
<path d="M21.7837 109.606L15.9331 100.605L25.8342 94.7539L30.7847 103.305L21.7837 109.606Z" fill="#64605D"/>
<path d="M34.8336 129.859L32.1333 133.01C33.6335 136.31 37.5339 140.211 38.884 139.31C40.2342 138.41 39.6341 131.81 38.884 129.859H34.8336Z" fill="#ADADAD" stroke="white" stroke-width="0.811787"/>
<path d="M192.801 73.1525L189.2 65.0516L196.851 61.4512L192.801 73.1525Z" fill="#64605D"/>
<path d="M217.558 13.2948C217.558 16.5292 214.936 19.1511 211.702 19.1511C208.467 19.1511 205.845 16.5292 205.845 13.2948C205.845 10.0605 208.467 7.43859 211.702 7.43859C214.936 7.43859 217.558 10.0605 217.558 13.2948Z" stroke="#5C5551" stroke-width="0.888889"/>
<path d="M160.854 69.1024C160.854 80.7877 151.381 90.2604 139.696 90.2604C128.01 90.2604 118.538 80.7877 118.538 69.1024C118.538 57.4172 128.01 47.9444 139.696 47.9444C151.381 47.9444 160.854 57.4172 160.854 69.1024Z" stroke="#5C5551" stroke-width="0.888889"/>
<rect x="-0.628538" width="8.08969" height="32.7825" rx="4.04484" transform="matrix(0.707106 -0.707108 0.707106 0.707108 145.812 80.0516)" fill="#64605D" stroke="white" stroke-width="0.888889"/>
</svg>
