<svg width="28" height="28" viewBox="0 0 28 28" fill="none" xmlns="http://www.w3.org/2000/svg">
<g clip-path="url(#clip0_4166_45816)">
<path d="M14 0C21.732 0 28 6.26801 28 14C28 21.732 21.732 28 14 28C6.26801 28 0 21.732 0 14C0 6.26801 6.26801 0 14 0Z" fill="url(#paint0_linear_4166_45816)"/>
<path d="M14 2.25C20.4893 2.25 25.75 7.51065 25.75 14C25.75 20.4893 20.4893 25.75 14 25.75C7.51065 25.75 2.25 20.4893 2.25 14C2.25 7.51065 7.51065 2.25 14 2.25Z" fill="url(#paint1_linear_4166_45816)" stroke="#00957C" stroke-width="0.5"/>
<g filter="url(#filter0_d_4166_45816)">
<mask id="mask0_4166_45816" style="mask-type:alpha" maskUnits="userSpaceOnUse" x="6" y="6" width="16" height="16">
<rect x="6" y="6" width="16" height="16" fill="#D9D9D9"/>
</mask>
<g mask="url(#mask0_4166_45816)">
<path d="M6.66602 17.467C6.66602 17.0892 6.76324 16.742 6.95768 16.4253C7.15213 16.1087 7.41046 15.867 7.73268 15.7003C8.42157 15.3559 9.12157 15.0975 9.83268 14.9253C10.5438 14.7531 11.266 14.667 11.9993 14.667C12.7327 14.667 13.4549 14.7531 14.166 14.9253C14.8771 15.0975 15.5771 15.3559 16.266 15.7003C16.5882 15.867 16.8466 16.1087 17.041 16.4253C17.2355 16.742 17.3327 17.0892 17.3327 17.467V18.0003C17.3327 18.367 17.2021 18.6809 16.941 18.942C16.6799 19.2031 16.366 19.3337 15.9993 19.3337H7.99935C7.63268 19.3337 7.31879 19.2031 7.05768 18.942C6.79657 18.6809 6.66602 18.367 6.66602 18.0003V17.467ZM18.2993 19.3337C18.4216 19.1337 18.5132 18.9198 18.5744 18.692C18.6355 18.4642 18.666 18.2337 18.666 18.0003V17.3337C18.666 16.8448 18.5299 16.3753 18.2577 15.9253C17.9855 15.4753 17.5993 15.0892 17.0993 14.767C17.666 14.8337 18.1994 14.9475 18.6994 15.1087C19.1994 15.2698 19.666 15.467 20.0993 15.7003C20.4993 15.9225 20.8049 16.1698 21.016 16.442C21.2271 16.7142 21.3327 17.0114 21.3327 17.3337V18.0003C21.3327 18.367 21.2021 18.6809 20.941 18.942C20.6799 19.2031 20.366 19.3337 19.9993 19.3337H18.2993ZM11.9993 14.0003C11.266 14.0003 10.6382 13.7392 10.116 13.217C9.59379 12.6948 9.33268 12.067 9.33268 11.3337C9.33268 10.6003 9.59379 9.97255 10.116 9.45033C10.6382 8.9281 11.266 8.66699 11.9993 8.66699C12.7327 8.66699 13.3605 8.9281 13.8827 9.45033C14.4049 9.97255 14.666 10.6003 14.666 11.3337C14.666 12.067 14.4049 12.6948 13.8827 13.217C13.3605 13.7392 12.7327 14.0003 11.9993 14.0003ZM18.666 11.3337C18.666 12.067 18.4049 12.6948 17.8827 13.217C17.3605 13.7392 16.7327 14.0003 15.9993 14.0003C15.8771 14.0003 15.7216 13.9864 15.5327 13.9587C15.3438 13.9309 15.1882 13.9003 15.066 13.867C15.366 13.5114 15.5966 13.117 15.7577 12.6837C15.9188 12.2503 15.9993 11.8003 15.9993 11.3337C15.9993 10.867 15.9188 10.417 15.7577 9.98366C15.5966 9.55033 15.366 9.15588 15.066 8.80033C15.2216 8.74477 15.3771 8.70866 15.5327 8.69199C15.6882 8.67533 15.8438 8.66699 15.9993 8.66699C16.7327 8.66699 17.3605 8.9281 17.8827 9.45033C18.4049 9.97255 18.666 10.6003 18.666 11.3337Z" fill="white"/>
</g>
</g>
</g>
<defs>
<filter id="filter0_d_4166_45816" x="4.66602" y="6.66699" width="18.667" height="14.6665" filterUnits="userSpaceOnUse" color-interpolation-filters="sRGB">
<feFlood flood-opacity="0" result="BackgroundImageFix"/>
<feColorMatrix in="SourceAlpha" type="matrix" values="0 0 0 0 0 0 0 0 0 0 0 0 0 0 0 0 0 0 127 0" result="hardAlpha"/>
<feOffset/>
<feGaussianBlur stdDeviation="1"/>
<feComposite in2="hardAlpha" operator="out"/>
<feColorMatrix type="matrix" values="0 0 0 0 0 0 0 0 0 0 0 0 0 0 0 0 0 0 0.2 0"/>
<feBlend mode="normal" in2="BackgroundImageFix" result="effect1_dropShadow_4166_45816"/>
<feBlend mode="normal" in="SourceGraphic" in2="effect1_dropShadow_4166_45816" result="shape"/>
</filter>
<linearGradient id="paint0_linear_4166_45816" x1="14" y1="0" x2="14" y2="28" gradientUnits="userSpaceOnUse">
<stop stop-color="#EDFFFC"/>
<stop offset="1" stop-color="#BFFFF4"/>
</linearGradient>
<linearGradient id="paint1_linear_4166_45816" x1="14" y1="2" x2="14" y2="26" gradientUnits="userSpaceOnUse">
<stop stop-color="#00D49F"/>
<stop offset="1" stop-color="#00A395"/>
</linearGradient>
<clipPath id="clip0_4166_45816">
<rect width="28" height="28" fill="white"/>
</clipPath>
</defs>
</svg>
