<svg width="24" height="24" viewBox="0 0 24 24" fill="none" xmlns="http://www.w3.org/2000/svg">
<mask id="mask0_3362_14865" style="mask-type:alpha" maskUnits="userSpaceOnUse" x="0" y="0" width="24" height="24">
<rect width="24" height="24" fill="#D9D9D9"/>
</mask>
<g mask="url(#mask0_3362_14865)">
<path d="M4.50785 15.1003C4.06413 15.1003 3.68525 14.9433 3.37122 14.6293C3.05717 14.3152 2.90015 13.9364 2.90015 13.4926V4.50809C2.90015 4.06438 3.05717 3.6855 3.37122 3.37147C3.68525 3.05742 4.06413 2.90039 4.50785 2.90039H13.4924C13.9361 2.90039 14.315 3.05742 14.629 3.37147C14.9431 3.6855 15.1001 4.06438 15.1001 4.50809V6.25809C15.1001 6.44258 15.0384 6.59703 14.915 6.72144C14.7916 6.84588 14.6384 6.90809 14.4554 6.90809C14.2724 6.90809 14.1174 6.84588 13.9905 6.72144C13.8636 6.59703 13.8001 6.44258 13.8001 6.25809V4.50809C13.8001 4.41834 13.7713 4.34462 13.7136 4.28692C13.6559 4.22922 13.5821 4.20037 13.4924 4.20037H4.50785C4.4181 4.20037 4.34437 4.22922 4.28667 4.28692C4.22897 4.34462 4.20012 4.41834 4.20012 4.50809V13.4926C4.20012 13.5824 4.22897 13.6561 4.28667 13.7138C4.34437 13.7715 4.4181 13.8004 4.50785 13.8004H6.25785C6.44233 13.8004 6.59678 13.8621 6.7212 13.9855C6.84563 14.1089 6.90785 14.2621 6.90785 14.4451C6.90785 14.6281 6.84563 14.783 6.7212 14.9099C6.59678 15.0369 6.44233 15.1003 6.25785 15.1003H4.50785ZM10.5078 21.1003C10.0641 21.1003 9.68526 20.9433 9.37122 20.6293C9.05717 20.3152 8.90015 19.9364 8.90015 19.4926V10.5081C8.90015 10.0644 9.05717 9.6855 9.37122 9.37147C9.68526 9.05742 10.0641 8.90039 10.5078 8.90039H19.4924C19.9361 8.90039 20.315 9.05742 20.629 9.37147C20.9431 9.6855 21.1001 10.0644 21.1001 10.5081V19.4926C21.1001 19.9364 20.9431 20.3152 20.629 20.6293C20.315 20.9433 19.9361 21.1003 19.4924 21.1003H10.5078ZM10.5078 19.8004H19.4924C19.5821 19.8004 19.6559 19.7715 19.7136 19.7138C19.7713 19.6561 19.8001 19.5824 19.8001 19.4926V10.5081C19.8001 10.4183 19.7713 10.3446 19.7136 10.2869C19.6559 10.2292 19.5821 10.2004 19.4924 10.2004H10.5078C10.4181 10.2004 10.3444 10.2292 10.2867 10.2869C10.229 10.3446 10.2001 10.4183 10.2001 10.5081V19.4926C10.2001 19.5824 10.229 19.6561 10.2867 19.7138C10.3444 19.7715 10.4181 19.8004 10.5078 19.8004Z" fill="#5C5551"/>
</g>
</svg>
