<svg width="24" height="24" viewBox="0 0 24 24" fill="none" xmlns="http://www.w3.org/2000/svg">
<mask id="mask0_3362_24608" style="mask-type:alpha" maskUnits="userSpaceOnUse" x="0" y="0" width="24" height="24">
<rect width="24" height="24" fill="#D9D9D9"/>
</mask>
<g mask="url(#mask0_3362_24608)">
<path d="M12.0087 21.1003C10.7568 21.1003 9.57783 20.8635 8.4717 20.3898C7.36555 19.9162 6.39736 19.2644 5.56715 18.4346C4.73691 17.6047 4.08486 16.6374 3.61097 15.5324C3.13709 14.4275 2.90015 13.2469 2.90015 11.9906C2.90015 10.7343 3.13698 9.55724 3.61065 8.45944C4.08431 7.36162 4.73606 6.39761 5.5659 5.56739C6.39575 4.73716 7.36314 4.0851 8.46807 3.61122C9.57301 3.13733 10.7536 2.90039 12.0099 2.90039C13.2662 2.90039 14.4432 3.13723 15.541 3.61089C16.6389 4.08456 17.6029 4.73631 18.4331 5.56614C19.2633 6.39599 19.9154 7.36143 20.3893 8.46247C20.8632 9.5635 21.1001 10.7399 21.1001 11.9918C21.1001 13.2437 20.8633 14.4227 20.3896 15.5288C19.9159 16.6349 19.2642 17.6031 18.4343 18.4333C17.6045 19.2636 16.6391 19.9156 15.538 20.3895C14.437 20.8634 13.2605 21.1003 12.0087 21.1003ZM12.0086 19.8004C12.9613 19.8004 13.8644 19.6343 14.7179 19.3023C15.5715 18.9702 16.338 18.5151 17.0174 17.9369L15.3963 16.2907C14.9281 16.6725 14.4043 16.9696 13.8247 17.1819C13.2451 17.3942 12.6369 17.5003 12.0001 17.5003C10.4724 17.5003 9.17376 16.9658 8.10432 15.8968C7.03487 14.8278 6.50015 13.5298 6.50015 12.0026C6.50015 10.4755 7.03465 9.17667 8.10365 8.10617C9.17265 7.03565 10.4707 6.50039 11.9978 6.50039C13.525 6.50039 14.8238 7.03512 15.8943 8.10457C16.9648 9.174 17.5001 10.4726 17.5001 12.0004C17.5001 12.6414 17.3959 13.247 17.1876 13.8173C16.9793 14.3876 16.6834 14.9108 16.3001 15.3869L17.9463 17.0081C18.5245 16.3265 18.978 15.5618 19.3068 14.7142C19.6357 13.8665 19.8001 12.9648 19.8001 12.0089C19.8001 9.829 19.0418 7.98262 17.5251 6.46972C16.0085 4.95682 14.1668 4.20037 12.0001 4.20037C9.83346 4.20037 7.99179 4.9587 6.47512 6.47537C4.95845 7.99203 4.20012 9.8337 4.20012 12.0004C4.20012 14.167 4.95657 16.0087 6.46947 17.5254C7.98237 19.042 9.82876 19.8004 12.0086 19.8004ZM12.0001 16.2004C12.4617 16.2004 12.8992 16.1276 13.3126 15.9821C13.7261 15.8366 14.1091 15.6363 14.4617 15.3811L12.3251 13.2446C12.2713 13.2694 12.2175 13.2848 12.1636 13.291C12.1098 13.2972 12.056 13.3003 12.0021 13.3003C11.6468 13.3003 11.341 13.1716 11.0847 12.9142C10.8283 12.6568 10.7001 12.3522 10.7001 12.0004C10.7001 11.6464 10.8288 11.3413 11.0862 11.0849C11.3436 10.8286 11.65 10.7004 12.0054 10.7004C12.3609 10.7004 12.6655 10.8277 12.9193 11.0822C13.1732 11.3367 13.3001 11.639 13.3001 11.9891C13.3001 12.0528 13.2928 12.1061 13.2783 12.149C13.2638 12.192 13.2524 12.2444 13.2443 12.3061L15.3905 14.4523C15.6442 14.1038 15.8425 13.7236 15.9856 13.3116C16.1286 12.8997 16.2001 12.4626 16.2001 12.0004C16.2001 10.8337 15.7918 9.84203 14.9751 9.02537C14.1585 8.2087 13.1668 7.80037 12.0001 7.80037C10.8335 7.80037 9.84179 8.2087 9.02512 9.02537C8.20846 9.84203 7.80012 10.8337 7.80012 12.0004C7.80012 13.167 8.20846 14.1587 9.02512 14.9754C9.84179 15.792 10.8335 16.2004 12.0001 16.2004Z" fill="#5C5551"/>
</g>
</svg>
