<svg width="24" height="24" viewBox="0 0 24 24" fill="none" xmlns="http://www.w3.org/2000/svg">
<mask id="mask0_3362_15558" style="mask-type:alpha" maskUnits="userSpaceOnUse" x="0" y="0" width="24" height="24">
<rect width="24" height="24" fill="#D9D9D9"/>
</mask>
<g mask="url(#mask0_3362_15558)">
<path d="M9.677 19.9H5.40007C5.03971 19.9 4.73295 19.7735 4.4798 19.5203C4.22666 19.2672 4.1001 18.9604 4.1001 18.6001V14.3231C4.65138 14.2065 5.10586 13.9302 5.46355 13.4943C5.82123 13.0584 6.00007 12.5603 6.00007 12.0001C6.00007 11.4398 5.82123 10.9417 5.46355 10.5058C5.10586 10.07 4.65138 9.79367 4.1001 9.67699V5.40006C4.1001 5.0397 4.22666 4.73294 4.4798 4.47979C4.73295 4.22666 5.03971 4.10009 5.40007 4.10009H9.60007C9.68982 3.49754 9.95814 2.99819 10.405 2.60204C10.8519 2.20589 11.3817 2.00781 11.9944 2.00781C12.6072 2.00781 13.1388 2.20455 13.5895 2.59804C14.0401 2.99152 14.3103 3.4922 14.4001 4.10009H18.6001C18.9604 4.10009 19.2672 4.22666 19.5203 4.47979C19.7735 4.73294 19.9 5.0397 19.9 5.40006V9.60006C20.5026 9.68981 21.0019 9.95813 21.3981 10.405C21.7942 10.8519 21.9923 11.3817 21.9923 11.9944C21.9923 12.6072 21.7956 13.1388 21.4021 13.5895C21.0086 14.0401 20.5079 14.3103 19.9 14.4001V18.6001C19.9 18.9604 19.7735 19.2672 19.5203 19.5203C19.2672 19.7735 18.9604 19.9 18.6001 19.9H14.3231C14.2001 19.3488 13.9248 18.8943 13.4972 18.5366C13.0697 18.1789 12.5716 18.0001 12.003 18.0001C11.4344 18.0001 10.9353 18.1789 10.5058 18.5366C10.0764 18.8943 9.80008 19.3488 9.677 19.9ZM5.40007 18.6001H8.78665C9.06228 18.068 9.47381 17.6184 10.0212 17.2511C10.5687 16.8837 11.2283 16.7001 12.0001 16.7001C12.7719 16.7001 13.4315 16.8837 13.9789 17.2511C14.5263 17.6184 14.9379 18.068 15.2135 18.6001H18.6001V13.1578H19.6308C19.9639 13.1193 20.2241 12.9856 20.4114 12.7566C20.5987 12.5277 20.6923 12.2755 20.6923 12.0001C20.6923 11.7247 20.5987 11.4725 20.4114 11.2435C20.2241 11.0145 19.9639 10.8808 19.6308 10.8423H18.6001V5.40006H13.1578V4.36934C13.1193 4.03625 12.9856 3.77605 12.7566 3.58874C12.5277 3.40144 12.2755 3.30779 12.0001 3.30779C11.7247 3.30779 11.4725 3.40144 11.2435 3.58874C11.0145 3.77605 10.8808 4.03625 10.8423 4.36934V5.40006H5.40007V8.73856C6.00904 9.05266 6.47794 9.50586 6.80677 10.0982C7.13562 10.6905 7.30005 11.3244 7.30005 12.0001C7.30005 12.7022 7.13562 13.3486 6.80677 13.9391C6.47794 14.5297 6.00904 14.9705 5.40007 15.2616V18.6001Z" fill="#5C5551"/>
</g>
</svg>
