<svg width="24" height="24" viewBox="0 0 24 24" fill="none" xmlns="http://www.w3.org/2000/svg">
<mask id="mask0_3362_17937" style="mask-type:alpha" maskUnits="userSpaceOnUse" x="0" y="0" width="24" height="24">
<rect width="24" height="24" fill="#D9D9D9"/>
</mask>
<g mask="url(#mask0_3362_17937)">
<path d="M3.49243 9.2959L6.53088 4.09208C6.6078 3.96131 6.70916 3.86323 6.83496 3.79785C6.96076 3.73247 7.08897 3.69978 7.21958 3.69978C7.35018 3.69978 7.47831 3.73247 7.60396 3.79785C7.72959 3.86323 7.83087 3.96131 7.90778 4.09208L10.9462 9.2959C11.0296 9.4311 11.0712 9.57047 11.0712 9.714C11.0712 9.85755 11.0328 9.98933 10.9559 10.1094C10.8809 10.2283 10.7884 10.325 10.6785 10.3995C10.5685 10.474 10.4291 10.5113 10.2602 10.5113H4.17853C4.0096 10.5113 3.87016 10.474 3.76021 10.3995C3.65026 10.325 3.5578 10.2283 3.48283 10.1094C3.4059 9.98933 3.36743 9.85755 3.36743 9.714C3.36743 9.57047 3.4091 9.4311 3.49243 9.2959ZM7.22896 20.1594C6.28666 20.1594 5.49115 19.833 4.84243 19.1803C4.19372 18.5276 3.86936 17.7373 3.86936 16.8092C3.86936 15.867 4.19372 15.0699 4.84243 14.418C5.49115 13.7661 6.28666 13.4402 7.22896 13.4402C8.17126 13.4402 8.96677 13.7645 9.61548 14.4132C10.2642 15.0619 10.5886 15.8575 10.5886 16.7998C10.5886 17.7421 10.2642 18.5376 9.61548 19.1863C8.96677 19.835 8.17126 20.1594 7.22896 20.1594ZM7.23426 18.8594C7.80766 18.8594 8.29339 18.6586 8.69146 18.257C9.08954 17.8553 9.28858 17.3678 9.28858 16.7945C9.28858 16.2211 9.08777 15.7353 8.68616 15.3372C8.28454 14.9392 7.79704 14.7401 7.22366 14.7401C6.65026 14.7401 6.16452 14.9409 5.76643 15.3426C5.36837 15.7442 5.16933 16.2317 5.16933 16.8051C5.16933 17.3785 5.37014 17.8642 5.77176 18.2623C6.17337 18.6603 6.66087 18.8594 7.23426 18.8594ZM5.07316 9.2113H9.37513L7.21933 5.46703L5.07316 9.2113ZM13.4597 19.3565V14.2511C13.4597 14.0236 13.5367 13.8316 13.6906 13.675C13.8444 13.5184 14.0351 13.4402 14.2626 13.4402H19.368C19.5955 13.4402 19.7875 13.5171 19.9441 13.671C20.1006 13.8248 20.1789 14.0155 20.1789 14.243V19.3485C20.1789 19.5759 20.102 19.7679 19.9481 19.9245C19.7943 20.0811 19.6036 20.1594 19.3761 20.1594H14.2707C14.0432 20.1594 13.8512 20.0824 13.6946 19.9285C13.538 19.7747 13.4597 19.584 13.4597 19.3565ZM14.7597 18.8594H18.879V14.7401H14.7597V18.8594ZM16.3117 10.1036L15.2674 9.24013C14.3585 8.49143 13.6947 7.86419 13.2761 7.35843C12.8575 6.85264 12.6482 6.27872 12.6482 5.63665C12.6482 5.0159 12.8479 4.49175 13.2473 4.0642C13.6466 3.63663 14.1719 3.42285 14.8231 3.42285C15.2231 3.42285 15.5827 3.50715 15.902 3.67575C16.2212 3.84433 16.527 4.11837 16.8193 4.49785C17.1116 4.12478 17.4248 3.85235 17.7588 3.68055C18.0927 3.50875 18.4535 3.42285 18.841 3.42285C19.4728 3.42285 19.989 3.63977 20.3896 4.0736C20.7902 4.50743 20.9905 5.03924 20.9905 5.669C20.9905 6.30234 20.7853 6.86034 20.3751 7.34303C19.9648 7.82573 19.3052 8.44976 18.3962 9.21513L17.327 10.1036C17.185 10.2177 17.0171 10.2747 16.8234 10.2747C16.6297 10.2747 16.4591 10.2177 16.3117 10.1036ZM16.8193 8.77478C17.9334 7.87606 18.6905 7.21228 19.0905 6.78343C19.4905 6.35458 19.6905 5.96515 19.6905 5.61515C19.6905 5.38054 19.6046 5.17316 19.4328 4.99303C19.261 4.81289 19.0632 4.72283 18.8393 4.72283C18.6773 4.72283 18.5264 4.76578 18.3867 4.85168C18.2469 4.93758 18.1033 5.06258 17.9559 5.22668L16.8193 6.28243L15.7078 5.22668C15.5373 5.05616 15.3824 4.92955 15.243 4.84685C15.1037 4.76417 14.958 4.72283 14.8059 4.72283C14.5713 4.72283 14.3697 4.80808 14.2011 4.9786C14.0325 5.14912 13.9482 5.35488 13.9482 5.5959C13.9482 5.9754 14.1565 6.38374 14.5732 6.82093C14.9898 7.25811 15.7386 7.90939 16.8193 8.77478Z" fill="#5C5551"/>
</g>
</svg>
