<svg width="24" height="24" viewBox="0 0 24 24" fill="none" xmlns="http://www.w3.org/2000/svg">
<mask id="mask0_3364_23033" style="mask-type:alpha" maskUnits="userSpaceOnUse" x="0" y="0" width="24" height="24">
<rect width="24" height="24" fill="#D9D9D9"/>
</mask>
<g mask="url(#mask0_3364_23033)">
<path d="M4.50772 19.9003C4.05759 19.9003 3.67711 19.7449 3.36627 19.434C3.05544 19.1232 2.90002 18.7427 2.90002 18.2926V8.10804C2.90002 7.65791 3.05544 7.27743 3.36627 6.96659C3.67711 6.65576 4.05759 6.50034 4.50772 6.50034H7.70002V5.00277C7.70002 4.55118 7.85544 4.17122 8.16627 3.86289C8.47711 3.55456 8.85759 3.40039 9.30772 3.40039H14.6923C15.1424 3.40039 15.5229 3.55581 15.8337 3.86664C16.1446 4.17747 16.3 4.55795 16.3 5.00807V6.50034H19.4923C19.9424 6.50034 20.3229 6.65576 20.6337 6.96659C20.9446 7.27743 21.1 7.65791 21.1 8.10804V18.2926C21.1 18.7427 20.9446 19.1232 20.6337 19.434C20.3229 19.7449 19.9424 19.9003 19.4923 19.9003H4.50772ZM9 6.50034H15V5.00807C15 4.93113 14.9679 4.86062 14.9038 4.79652C14.8397 4.7324 14.7692 4.70034 14.6923 4.70034H9.30772C9.23079 4.70034 9.16027 4.7324 9.09615 4.79652C9.03205 4.86062 9 4.93113 9 5.00807V6.50034ZM19.8 14.4503H14.5V15.4964C14.5 15.7258 14.4233 15.9171 14.2701 16.0704C14.1168 16.2237 13.9255 16.3003 13.6961 16.3003H10.3039C10.0745 16.3003 9.88322 16.2237 9.72995 16.0704C9.57667 15.9171 9.50002 15.7258 9.50002 15.4964V14.4503H4.2V18.2926C4.2 18.3695 4.23205 18.4401 4.29615 18.5042C4.36027 18.5683 4.43079 18.6003 4.50772 18.6003H19.4923C19.5692 18.6003 19.6397 18.5683 19.7039 18.5042C19.768 18.4401 19.8 18.3695 19.8 18.2926V14.4503ZM10.8 15.0003H13.2V12.6003H10.8V15.0003ZM4.2 13.1503H9.50002V12.1042C9.50002 11.8748 9.57667 11.6835 9.72995 11.5303C9.88322 11.377 10.0745 11.3003 10.3039 11.3003H13.6961C13.9255 11.3003 14.1168 11.377 14.2701 11.5303C14.4233 11.6835 14.5 11.8748 14.5 12.1042V13.1503H19.8V8.10804C19.8 8.03111 19.768 7.96058 19.7039 7.89647C19.6397 7.83237 19.5692 7.80032 19.4923 7.80032H4.50772C4.43079 7.80032 4.36027 7.83237 4.29615 7.89647C4.23205 7.96058 4.2 8.03111 4.2 8.10804V13.1503Z" fill="#5C5551"/>
</g>
</svg>
