<svg width="24" height="24" viewBox="0 0 24 24" fill="none" xmlns="http://www.w3.org/2000/svg">
<mask id="mask0_3362_5513" style="mask-type:alpha" maskUnits="userSpaceOnUse" x="0" y="0" width="24" height="24">
<rect width="24" height="24" fill="#D9D9D9"/>
</mask>
<g mask="url(#mask0_3362_5513)">
<path d="M3.19824 16.7844C3.19824 16.406 3.28959 16.072 3.47229 15.7823C3.65498 15.4927 3.91024 15.2521 4.23809 15.0605C5.05511 14.579 5.91489 14.1998 6.81744 13.9229C7.72001 13.646 8.74693 13.5075 9.89822 13.5075C11.0495 13.5075 12.0764 13.646 12.979 13.9229C13.8815 14.1998 14.7413 14.579 15.5583 15.0605C15.8862 15.2521 16.1415 15.4927 16.3241 15.7823C16.5068 16.072 16.5982 16.406 16.5982 16.7844V17.1882C16.5982 17.5358 16.4699 17.8425 16.2134 18.1085C15.9568 18.3745 15.645 18.5074 15.278 18.5074H4.51037C4.1433 18.5074 3.83285 18.3793 3.57902 18.1229C3.32517 17.8666 3.19824 17.555 3.19824 17.1882V16.7844ZM19.4828 18.5074H18.0866C18.179 18.2946 18.254 18.078 18.3116 17.8576C18.3693 17.6372 18.3982 17.414 18.3982 17.1882V16.8613C18.3982 16.2383 18.2791 15.6668 18.041 15.1471C17.8029 14.6273 17.4886 14.2045 17.0982 13.8787C17.5687 14.012 18.0344 14.1751 18.4953 14.3681C18.9562 14.561 19.4103 14.7921 19.8578 15.0613C20.1411 15.2203 20.3693 15.4633 20.5424 15.7903C20.7155 16.1173 20.802 16.4743 20.802 16.8613V17.1882C20.802 17.555 20.6738 17.8666 20.4175 18.1229C20.1611 18.3793 19.8496 18.5074 19.4828 18.5074ZM9.89822 11.6921C9.03573 11.6921 8.30345 11.391 7.70137 10.789C7.09928 10.1869 6.79824 9.4546 6.79824 8.59212C6.79824 7.72962 7.09928 6.99734 7.70137 6.39527C8.30345 5.79319 9.03573 5.49214 9.89822 5.49214C10.7607 5.49214 11.493 5.79319 12.0951 6.39527C12.6971 6.99734 12.9982 7.72962 12.9982 8.59212C12.9982 9.4546 12.6971 10.1869 12.0951 10.789C11.493 11.391 10.7607 11.6921 9.89822 11.6921ZM16.9327 8.59212C16.9327 9.4546 16.6317 10.1869 16.0296 10.789C15.4275 11.391 14.6953 11.6921 13.8328 11.6921C13.77 11.6921 13.7347 11.6959 13.727 11.7036C13.7193 11.7113 13.6841 11.7081 13.6213 11.694C13.9823 11.2699 14.2687 10.7981 14.4805 10.2786C14.6923 9.75909 14.7982 9.19654 14.7982 8.59092C14.7982 7.98532 14.6902 7.42515 14.4741 6.9104C14.2581 6.39566 13.9738 5.92227 13.6213 5.49022C13.6649 5.48894 13.7001 5.48894 13.727 5.49022C13.7539 5.4915 13.7892 5.49214 13.8328 5.49214C14.6953 5.49214 15.4275 5.79319 16.0296 6.39527C16.6317 6.99734 16.9327 7.72962 16.9327 8.59212ZM4.49822 17.2075H15.2982V16.7844C15.2982 16.6509 15.2666 16.5336 15.2034 16.4326C15.1401 16.3315 15.0288 16.2373 14.8694 16.1498C14.163 15.7254 13.3989 15.3956 12.5771 15.1603C11.7553 14.9251 10.8623 14.8075 9.89822 14.8075C8.93412 14.8075 8.04117 14.9209 7.21937 15.1478C6.39758 15.3748 5.63348 15.7088 4.92707 16.1498C4.76765 16.2353 4.65632 16.3269 4.59307 16.4245C4.52983 16.5221 4.49822 16.6413 4.49822 16.7821V17.2075ZM9.90352 10.3921C10.4 10.3921 10.8232 10.2153 11.1732 9.86179C11.5232 9.50826 11.6982 9.08326 11.6982 8.58679C11.6982 8.09034 11.5215 7.66712 11.1679 7.31712C10.8144 6.96712 10.3894 6.79212 9.89292 6.79212C9.39645 6.79212 8.97322 6.96889 8.62322 7.32242C8.27322 7.67597 8.09822 8.10097 8.09822 8.59742C8.09822 9.09389 8.27498 9.51712 8.62852 9.86712C8.98207 10.2171 9.40707 10.3921 9.90352 10.3921Z" fill="#5C5551"/>
</g>
</svg>
