<svg width="24" height="24" viewBox="0 0 24 24" fill="none" xmlns="http://www.w3.org/2000/svg">
<mask id="mask0_3362_456" style="mask-type:alpha" maskUnits="userSpaceOnUse" x="0" y="0" width="24" height="24">
<rect width="24" height="24" fill="#D9D9D9"/>
</mask>
<g mask="url(#mask0_3362_456)">
<path d="M6.90012 12.9498H13.5001C13.6846 12.9498 13.8391 12.8881 13.9635 12.7647C14.0879 12.6412 14.1501 12.488 14.1501 12.3051C14.1501 12.1221 14.0879 11.9671 13.9635 11.8402C13.8391 11.7133 13.6846 11.6498 13.5001 11.6498H6.90012C6.71564 11.6498 6.56119 11.7115 6.43677 11.8349C6.31235 11.9583 6.25015 12.1115 6.25015 12.2945C6.25015 12.4775 6.31235 12.6325 6.43677 12.7594C6.56119 12.8863 6.71564 12.9498 6.90012 12.9498ZM6.90012 9.94976H13.5001C13.6846 9.94976 13.8391 9.88805 13.9635 9.76466C14.0879 9.64124 14.1501 9.48804 14.1501 9.30506C14.1501 9.12206 14.0879 8.9671 13.9635 8.84018C13.8391 8.71326 13.6846 8.6498 13.5001 8.6498H6.90012C6.71564 8.6498 6.56119 8.71151 6.43677 8.83491C6.31235 8.95832 6.25015 9.11152 6.25015 9.29451C6.25015 9.47751 6.31235 9.63246 6.43677 9.75938C6.56119 9.8863 6.71564 9.94976 6.90012 9.94976ZM4.50785 18.6998C4.05771 18.6998 3.67723 18.5442 3.3664 18.2332C3.05556 17.9222 2.90015 17.5415 2.90015 17.0911V6.90041C2.90015 6.45001 3.05556 6.07064 3.3664 5.7623C3.67723 5.45397 4.05771 5.2998 4.50785 5.2998H19.4924C19.9425 5.2998 20.323 5.45532 20.6338 5.76636C20.9447 6.07739 21.1001 6.45811 21.1001 6.90851V17.0992C21.1001 17.5496 20.9447 17.9289 20.6338 18.2373C20.323 18.5456 19.9425 18.6998 19.4924 18.6998H4.50785ZM4.50785 17.3998H19.4924C19.5693 17.3998 19.6399 17.3677 19.704 17.3036C19.7681 17.2395 19.8001 17.169 19.8001 17.0921V6.90751C19.8001 6.83057 19.7681 6.76005 19.704 6.69593C19.6399 6.63183 19.5693 6.59978 19.4924 6.59978H4.50785C4.43091 6.59978 4.36039 6.63183 4.29627 6.69593C4.23217 6.76005 4.20012 6.83057 4.20012 6.90751V17.0921C4.20012 17.169 4.23217 17.2395 4.29627 17.3036C4.36039 17.3677 4.43091 17.3998 4.50785 17.3998Z" fill="#5C5551"/>
</g>
</svg>
