<svg width="24" height="24" viewBox="0 0 24 24" fill="none" xmlns="http://www.w3.org/2000/svg">
<mask id="mask0_3362_14503" style="mask-type:alpha" maskUnits="userSpaceOnUse" x="0" y="0" width="24" height="24">
<rect width="24" height="24" fill="#D9D9D9"/>
</mask>
<g mask="url(#mask0_3362_14503)">
<path d="M9.87489 19.9958C9.14284 19.9958 8.52264 19.7568 8.01431 19.2786C7.50599 18.8004 7.22299 18.2004 7.16529 17.4786C6.29862 17.3722 5.57747 16.9946 5.00184 16.3459C4.4262 15.6972 4.13839 14.9277 4.13839 14.0376C4.13839 13.7265 4.17268 13.4025 4.24126 13.0656C4.30986 12.7286 4.42941 12.4278 4.59991 12.1632C4.41403 11.8851 4.27461 11.5839 4.18166 11.2596C4.08871 10.9352 4.04224 10.599 4.04224 10.2509C4.04224 9.36846 4.33294 8.60533 4.91434 7.96155C5.49575 7.31778 6.23581 6.93885 7.13451 6.82475C7.12811 6.79912 7.12491 6.77348 7.12491 6.74783V6.66127C7.13901 5.90616 7.41401 5.27123 7.94991 4.75648C8.48581 4.24174 9.12769 3.98438 9.87554 3.98438C10.3008 3.98438 10.6887 4.06578 11.0393 4.2286C11.3899 4.39142 11.714 4.63693 12.0114 4.96515C12.3063 4.63693 12.6187 4.39142 12.9485 4.2286C13.2784 4.06578 13.6603 3.98438 14.0942 3.98438C14.8376 3.98438 15.4792 4.24495 16.019 4.7661C16.5588 5.28725 16.8358 5.92218 16.8499 6.6709V6.75745C16.8499 6.78308 16.8467 6.80873 16.8403 6.83438C17.739 6.93181 18.4832 7.30417 19.0729 7.95145C19.6627 8.59873 19.9575 9.36803 19.9575 10.2594C19.9575 10.6174 19.9053 10.9591 19.8008 11.2846C19.6963 11.6101 19.5511 11.9113 19.3652 12.1882C19.5524 12.5023 19.6819 12.8154 19.7537 13.1276C19.8255 13.4397 19.8614 13.7473 19.8614 14.0503C19.8614 14.932 19.571 15.7029 18.9902 16.3632C18.4095 17.0234 17.6826 17.3952 16.8095 17.4786C16.7518 18.2004 16.4688 18.8004 15.9605 19.2786C15.4521 19.7568 14.8297 19.9958 14.0932 19.9958C13.6621 19.9958 13.2811 19.917 12.9502 19.7593C12.6192 19.6016 12.3025 19.3555 11.9999 19.0209C11.7037 19.3388 11.3849 19.5808 11.0434 19.7468C10.7019 19.9128 10.3124 19.9958 9.87489 19.9958ZM12.6499 6.75193V17.2533C12.6499 17.6517 12.7904 17.9959 13.0716 18.2859C13.3527 18.5759 13.6968 18.7209 14.104 18.7209C14.5051 18.7209 14.8364 18.5882 15.098 18.3228C15.3595 18.0574 15.5018 17.726 15.5249 17.3286C15.1377 17.2401 14.7782 17.09 14.4462 16.8781C14.1142 16.6663 13.8283 16.3933 13.5883 16.0593C13.4768 15.9091 13.4368 15.7493 13.4684 15.58C13.4999 15.4107 13.5915 15.2724 13.7431 15.1651C13.8938 15.0536 14.0568 15.0114 14.2321 15.0386C14.4074 15.0657 14.5499 15.1553 14.6595 15.3074C14.8588 15.5921 15.1126 15.8101 15.4206 15.9614C15.7287 16.1126 16.0619 16.1882 16.4201 16.1882C17.0246 16.1882 17.5326 15.9824 17.9441 15.5709C18.3556 15.1594 18.5614 14.6485 18.5614 14.0382C18.5614 13.8788 18.5451 13.7277 18.5124 13.585C18.4797 13.4422 18.4371 13.3016 18.3845 13.1632C18.1196 13.3388 17.8268 13.4737 17.5062 13.568C17.1857 13.6622 16.8528 13.7093 16.5076 13.7093C16.3234 13.7093 16.169 13.6475 16.0445 13.5239C15.9199 13.4002 15.8576 13.247 15.8576 13.0643C15.8576 12.8815 15.9199 12.7267 16.0445 12.5998C16.169 12.4728 16.3234 12.4094 16.5076 12.4094C17.1178 12.4094 17.6287 12.2036 18.0403 11.7921C18.4518 11.3805 18.6576 10.8736 18.6576 10.2712C18.6576 9.67879 18.455 9.17616 18.0499 8.76328C17.6448 8.35039 17.1289 8.13241 16.5023 8.10932C16.3276 8.39908 16.1175 8.65388 15.872 8.87375C15.6265 9.09363 15.3403 9.26191 15.0133 9.37858C14.8505 9.43626 14.6882 9.42787 14.5264 9.3534C14.3646 9.27893 14.2526 9.15659 14.1903 8.98638C14.1262 8.81829 14.1339 8.65286 14.2134 8.49008C14.2928 8.32729 14.421 8.21385 14.5977 8.14975C14.8748 8.04718 15.1028 7.87021 15.2816 7.61882C15.4605 7.36744 15.5499 7.07948 15.5499 6.75493C15.5499 6.35403 15.4097 6.0087 15.1292 5.71895C14.8488 5.4292 14.5055 5.28432 14.0993 5.28432C13.6932 5.28432 13.3501 5.42933 13.07 5.71933C12.7899 6.00934 12.6499 6.35354 12.6499 6.75193ZM11.3499 17.2459V6.7516C11.3499 6.35343 11.2049 6.00934 10.9147 5.71933C10.6246 5.42933 10.2769 5.28432 9.87154 5.28432C9.46617 5.28432 9.12371 5.4275 8.84416 5.71385C8.56463 6.00018 8.42486 6.3507 8.42486 6.7654C8.42486 7.08573 8.51589 7.3709 8.69794 7.6209C8.88 7.8709 9.10958 8.04718 9.38666 8.14975C9.55701 8.21385 9.68353 8.32526 9.76621 8.48398C9.84891 8.64269 9.85875 8.80633 9.79574 8.9749C9.7368 9.1391 9.62533 9.26025 9.46131 9.33835C9.29728 9.41643 9.13065 9.42663 8.96144 9.36895C8.6345 9.25228 8.34829 9.08562 8.10279 8.86895C7.85727 8.65228 7.64712 8.39908 7.47234 8.10932C6.8625 8.13241 6.35502 8.34972 5.94989 8.76125C5.54475 9.1728 5.34219 9.67333 5.34219 10.2629C5.34219 10.8708 5.54796 11.3805 5.95951 11.7921C6.37104 12.2036 6.88194 12.4094 7.49221 12.4094C7.67638 12.4094 7.83074 12.4712 7.95531 12.5948C8.0799 12.7185 8.14219 12.8717 8.14219 13.0544C8.14219 13.2372 8.0799 13.392 7.95531 13.519C7.83074 13.6459 7.67638 13.7093 7.49221 13.7093C7.14759 13.7093 6.81529 13.658 6.49529 13.5555C6.17529 13.4529 5.88195 13.3138 5.61529 13.1382C5.56272 13.2766 5.52009 13.4228 5.48739 13.5767C5.4547 13.7305 5.43836 13.8844 5.43836 14.0382C5.43836 14.6485 5.64413 15.1594 6.05566 15.5709C6.46721 15.9824 6.97522 16.1882 7.57969 16.1882C7.93979 16.1882 8.27288 16.1121 8.57896 15.9598C8.88503 15.8074 9.13881 15.59 9.34031 15.3074C9.45386 15.1431 9.60148 15.0462 9.78316 15.0169C9.96483 14.9875 10.1268 15.027 10.2691 15.1353C10.4114 15.2437 10.4986 15.3892 10.5307 15.5719C10.5627 15.7545 10.5251 15.9196 10.4177 16.0669C10.1815 16.3901 9.8954 16.6616 9.55949 16.8815C9.22359 17.1013 8.85371 17.2555 8.44986 17.344C8.47294 17.7414 8.61525 18.0661 8.87679 18.318C9.13834 18.5699 9.46728 18.6959 9.86361 18.6959C10.2798 18.6959 10.6315 18.5557 10.9189 18.2754C11.2062 17.995 11.3499 17.6519 11.3499 17.2459Z" fill="#5C5551"/>
</g>
</svg>
