<svg width="32" height="32" viewBox="0 0 32 32" fill="none" xmlns="http://www.w3.org/2000/svg">
<path d="M0 16C0 7.16344 7.16344 0 16 0V0C24.8366 0 32 7.16344 32 16V16C32 24.8366 24.8366 32 16 32V32C7.16344 32 0 24.8366 0 16V16Z" fill="white"/>
<g clip-path="url(#clip0_3509_49780)">
<path d="M15.5001 17.5373C19.0055 17.5373 21.8473 14.9141 21.8473 11.6783C21.8473 8.44249 19.0055 5.81934 15.5001 5.81934C11.9946 5.81934 9.15283 8.44249 9.15283 11.6783C9.15283 14.9141 11.9946 17.5373 15.5001 17.5373Z" fill="#A4C639" stroke="white" stroke-width="1.0044"/>
<path d="M20.3128 10.2139H10.6873C9.83985 10.2139 9.15283 10.9009 9.15283 11.7484V21.3738C9.15283 22.2213 9.83985 22.9083 10.6873 22.9083H20.3128C21.1603 22.9083 21.8473 22.2213 21.8473 21.3738V11.7484C21.8473 10.9009 21.1603 10.2139 20.3128 10.2139Z" fill="#A4C639" stroke="white" stroke-width="1.0044"/>
<path d="M11.1645 4.88203C11.0431 4.66303 11.1223 4.38709 11.3413 4.2657C11.5603 4.14431 11.8362 4.22343 11.9576 4.44243L14.4261 8.89575C14.5475 9.11475 14.4684 9.39069 14.2494 9.51208C14.0304 9.63348 13.7544 9.55435 13.6331 9.33535L11.1645 4.88203Z" fill="#A4C639" stroke="white" stroke-width="0.502198"/>
<path d="M22.1261 13.3522C22.1261 12.4277 22.8756 11.6782 23.8001 11.6782C24.7246 11.6782 25.4741 12.4277 25.4741 13.3522V19.2809C25.4741 20.2055 24.7246 20.9549 23.8001 20.9549C22.8756 20.9549 22.1261 20.2055 22.1261 19.2809V13.3522Z" fill="#A4C639" stroke="white" stroke-width="0.502198"/>
<path d="M16.1974 20.1183C16.1974 19.1938 16.9469 18.4443 17.8714 18.4443C18.7959 18.4443 19.5454 19.1938 19.5454 20.1183V26.0471C19.5454 26.9716 18.7959 27.721 17.8714 27.721C16.9469 27.721 16.1974 26.9716 16.1974 26.0471V20.1183Z" fill="#A4C639" stroke="white" stroke-width="0.502198"/>
<path d="M19.8355 4.88203C19.9569 4.66303 19.8777 4.38709 19.6587 4.2657C19.4397 4.14431 19.1638 4.22343 19.0424 4.44243L16.5739 8.89575C16.4525 9.11475 16.5316 9.39069 16.7506 9.51208C16.9696 9.63348 17.2456 9.55435 17.3669 9.33535L19.8355 4.88203Z" fill="#A4C639" stroke="white" stroke-width="0.502198"/>
<path d="M8.87338 13.3522C8.87338 12.4277 8.12391 11.6782 7.19938 11.6782C6.27486 11.6782 5.52539 12.4277 5.52539 13.3522V19.2809C5.52539 20.2055 6.27486 20.9549 7.19938 20.9549C8.12391 20.9549 8.87338 20.2055 8.87338 19.2809V13.3522Z" fill="#A4C639" stroke="white" stroke-width="0.502198"/>
<path d="M14.8026 20.1183C14.8026 19.1938 14.0531 18.4443 13.1286 18.4443C12.2041 18.4443 11.4546 19.1938 11.4546 20.1183V26.0471C11.4546 26.9716 12.2041 27.721 13.1286 27.721C14.0531 27.721 14.8026 26.9716 14.8026 26.0471V20.1183Z" fill="#A4C639" stroke="white" stroke-width="0.502198"/>
<path d="M15.5001 17.5373C19.0055 17.5373 21.8473 14.9141 21.8473 11.6783C21.8473 8.44249 19.0055 5.81934 15.5001 5.81934C11.9946 5.81934 9.15283 8.44249 9.15283 11.6783C9.15283 14.9141 11.9946 17.5373 15.5001 17.5373Z" fill="#A4C639"/>
<path d="M20.3128 10.2139H10.6873C9.83985 10.2139 9.15283 10.9009 9.15283 11.7484V21.3738C9.15283 22.2213 9.83985 22.9083 10.6873 22.9083H20.3128C21.1603 22.9083 21.8473 22.2213 21.8473 21.3738V11.7484C21.8473 10.9009 21.1603 10.2139 20.3128 10.2139Z" fill="#A4C639"/>
<path d="M8.87402 11.9229H22.1265Z" fill="white"/>
<path d="M8.87402 11.9229H22.1265" stroke="white" stroke-width="0.502198"/>
<path d="M12.5705 9.09804C12.7246 9.09804 12.8495 8.97312 12.8495 8.81904C12.8495 8.66495 12.7246 8.54004 12.5705 8.54004C12.4164 8.54004 12.2915 8.66495 12.2915 8.81904C12.2915 8.97312 12.4164 9.09804 12.5705 9.09804Z" fill="white" stroke="white" stroke-width="0.502198"/>
<path d="M18.4294 9.09804C18.5835 9.09804 18.7084 8.97312 18.7084 8.81904C18.7084 8.66495 18.5835 8.54004 18.4294 8.54004C18.2753 8.54004 18.1504 8.66495 18.1504 8.81904C18.1504 8.97312 18.2753 9.09804 18.4294 9.09804Z" fill="white" stroke="white" stroke-width="0.502198"/>
</g>
<defs>
<clipPath id="clip0_3509_49780">
<rect width="20.5064" height="24.0637" fill="white" transform="translate(5.24658 3.93652)"/>
</clipPath>
</defs>
</svg>
