<svg width="32" height="32" viewBox="0 0 32 32" fill="none" xmlns="http://www.w3.org/2000/svg">
<rect width="32" height="32" fill="white"/>
<g clip-path="url(#clip0_2428_93042)">
<path d="M15.5003 17.9564C19.7739 17.9564 23.2384 14.6861 23.2384 10.652C23.2384 6.61792 19.7739 3.34766 15.5003 3.34766C11.2267 3.34766 7.76221 6.61792 7.76221 10.652C7.76221 14.6861 11.2267 17.9564 15.5003 17.9564Z" fill="#A4C639" stroke="white" stroke-width="14.4"/>
<path d="M21.3676 8.82617H9.63296C8.59977 8.82617 7.76221 9.68267 7.76221 10.7392V22.7392C7.76221 23.7958 8.59977 24.6523 9.63296 24.6523H21.3676C22.4008 24.6523 23.2384 23.7958 23.2384 22.7392V10.7392C23.2384 9.68267 22.4008 8.82617 21.3676 8.82617Z" fill="#A4C639" stroke="white" stroke-width="14.4"/>
<path d="M10.2147 2.17911C10.0667 1.90609 10.1632 1.56208 10.4302 1.41074C10.6971 1.2594 11.0335 1.35805 11.1815 1.63107L14.191 7.183C14.339 7.45603 14.2425 7.80004 13.9755 7.95138C13.7085 8.10271 13.3721 8.00407 13.2241 7.73105L10.2147 2.17911Z" fill="#A4C639"/>
<path fill-rule="evenodd" clip-rule="evenodd" d="M10.5789 1.68431C10.698 1.61679 10.8481 1.6608 10.9141 1.78261L13.9235 7.33455C13.9896 7.45636 13.9465 7.60984 13.8274 7.67736C13.7083 7.74488 13.5582 7.70087 13.4922 7.57906L10.4827 2.02713C10.4167 1.90532 10.4597 1.75184 10.5789 1.68431ZM11.4496 1.47908C11.2196 1.05485 10.6969 0.90157 10.282 1.13673C9.86719 1.37188 9.7173 1.90643 9.94726 2.33066L12.9567 7.88259C13.1867 8.30683 13.7094 8.46011 14.1242 8.22495C14.5391 7.98979 14.689 7.45525 14.459 7.03102L11.4496 1.47908Z" fill="white"/>
<path d="M23.5785 12.7393C23.5785 11.5867 24.4922 10.6523 25.6193 10.6523C26.7465 10.6523 27.6602 11.5867 27.6602 12.7393V20.1306C27.6602 21.2832 26.7465 22.2176 25.6193 22.2176C24.4922 22.2176 23.5785 21.2832 23.5785 20.1306V12.7393Z" fill="#A4C639"/>
<path fill-rule="evenodd" clip-rule="evenodd" d="M25.6194 10.965C26.5774 10.965 27.3541 11.7592 27.3541 12.7389V20.1302C27.3541 21.1099 26.5774 21.9041 25.6194 21.9041C24.6613 21.9041 23.8847 21.1099 23.8847 20.1302V12.7389C23.8847 11.7592 24.6613 10.965 25.6194 10.965ZM27.9663 12.7389C27.9663 11.4134 26.9155 10.3389 25.6194 10.3389C24.3232 10.3389 23.2724 11.4134 23.2724 12.7389V20.1302C23.2724 21.4557 24.3232 22.5302 25.6194 22.5302C26.9155 22.5302 27.9663 21.4557 27.9663 20.1302V12.7389Z" fill="white"/>
<path d="M16.3505 21.1739C16.3505 20.0213 17.2642 19.0869 18.3913 19.0869C19.5184 19.0869 20.4321 20.0213 20.4321 21.1739V28.5652C20.4321 29.7178 19.5184 30.6521 18.3913 30.6521C17.2642 30.6521 16.3505 29.7178 16.3505 28.5652V21.1739Z" fill="#A4C639"/>
<path fill-rule="evenodd" clip-rule="evenodd" d="M18.3913 19.3995C19.3494 19.3995 20.126 20.1937 20.126 21.1734V28.5647C20.126 29.5444 19.3494 30.3387 18.3913 30.3387C17.4333 30.3387 16.6566 29.5444 16.6566 28.5647V21.1734C16.6566 20.1937 17.4333 19.3995 18.3913 19.3995ZM20.7383 21.1734C20.7383 19.848 19.6875 18.7734 18.3913 18.7734C17.0952 18.7734 16.0444 19.848 16.0444 21.1734V28.5647C16.0444 29.8902 17.0952 30.9647 18.3913 30.9647C19.6875 30.9647 20.7383 29.8902 20.7383 28.5647V21.1734Z" fill="white"/>
<path d="M20.7858 2.17911C20.9338 1.90609 20.8373 1.56208 20.5703 1.41074C20.3033 1.2594 19.9669 1.35805 19.8189 1.63107L16.8095 7.183C16.6615 7.45603 16.758 7.80004 17.025 7.95138C17.2919 8.10271 17.6284 8.00407 17.7763 7.73105L20.7858 2.17911Z" fill="#A4C639"/>
<path fill-rule="evenodd" clip-rule="evenodd" d="M20.4216 1.68431C20.3025 1.61679 20.1524 1.6608 20.0864 1.78261L17.0769 7.33455C17.0109 7.45636 17.054 7.60984 17.1731 7.67736C17.2922 7.74488 17.4423 7.70087 17.5083 7.57906L20.5178 2.02713C20.5838 1.90532 20.5407 1.75184 20.4216 1.68431ZM19.5509 1.47908C19.7809 1.05485 20.3036 0.90157 20.7184 1.13673C21.1333 1.37188 21.2832 1.90643 21.0532 2.33066L18.0438 7.88259C17.8138 8.30683 17.2911 8.46011 16.8762 8.22495C16.4614 7.98979 16.3115 7.45525 16.5415 7.03102L19.5509 1.47908Z" fill="white"/>
<path d="M7.42196 12.7393C7.42196 11.5867 6.50826 10.6523 5.38115 10.6523C4.25404 10.6523 3.34033 11.5867 3.34033 12.7393V20.1306C3.34033 21.2832 4.25404 22.2176 5.38115 22.2176C6.50826 22.2176 7.42196 21.2832 7.42196 20.1306V12.7393Z" fill="#A4C639"/>
<path fill-rule="evenodd" clip-rule="evenodd" d="M5.38112 10.965C4.42307 10.965 3.64642 11.7592 3.64642 12.7389V20.1302C3.64642 21.1099 4.42307 21.9041 5.38112 21.9041C6.33916 21.9041 7.11581 21.1099 7.11581 20.1302V12.7389C7.11581 11.7592 6.33916 10.965 5.38112 10.965ZM3.03418 12.7389C3.03418 11.4134 4.08494 10.3389 5.38112 10.3389C6.6773 10.3389 7.72806 11.4134 7.72806 12.7389V20.1302C7.72806 21.4557 6.6773 22.5302 5.38112 22.5302C4.08494 22.5302 3.03418 21.4557 3.03418 20.1302V12.7389Z" fill="white"/>
<path d="M14.65 21.1739C14.65 20.0213 13.7363 19.0869 12.6092 19.0869C11.4821 19.0869 10.5684 20.0213 10.5684 21.1739V28.5652C10.5684 29.7178 11.4821 30.6521 12.6092 30.6521C13.7363 30.6521 14.65 29.7178 14.65 28.5652V21.1739Z" fill="#A4C639"/>
<path fill-rule="evenodd" clip-rule="evenodd" d="M12.6091 19.3995C11.6511 19.3995 10.8745 20.1937 10.8745 21.1734V28.5647C10.8745 29.5444 11.6511 30.3387 12.6091 30.3387C13.5672 30.3387 14.3438 29.5444 14.3438 28.5647V21.1734C14.3438 20.1937 13.5672 19.3995 12.6091 19.3995ZM10.2622 21.1734C10.2622 19.848 11.313 18.7734 12.6091 18.7734C13.9053 18.7734 14.9561 19.848 14.9561 21.1734V28.5647C14.9561 29.8902 13.9053 30.9647 12.6091 30.9647C11.313 30.9647 10.2622 29.8902 10.2622 28.5647V21.1734Z" fill="white"/>
<path d="M15.5003 17.9564C19.7739 17.9564 23.2384 14.6861 23.2384 10.652C23.2384 6.61792 19.7739 3.34766 15.5003 3.34766C11.2267 3.34766 7.76221 6.61792 7.76221 10.652C7.76221 14.6861 11.2267 17.9564 15.5003 17.9564Z" fill="#A4C639"/>
<path d="M21.3676 8.82617H9.63296C8.59977 8.82617 7.76221 9.68267 7.76221 10.7392V22.7392C7.76221 23.7958 8.59977 24.6523 9.63296 24.6523H21.3676C22.4008 24.6523 23.2384 23.7958 23.2384 22.7392V10.7392C23.2384 9.68267 22.4008 8.82617 21.3676 8.82617Z" fill="#A4C639"/>
<path fill-rule="evenodd" clip-rule="evenodd" d="M23.5783 11.2696H7.42188V10.6436H23.5783V11.2696Z" fill="white"/>
<path fill-rule="evenodd" clip-rule="evenodd" d="M11.9285 6.42578C11.5716 6.42578 11.2822 6.72166 11.2822 7.08665C11.2822 7.45164 11.5716 7.74752 11.9285 7.74752C12.2854 7.74752 12.5747 7.45164 12.5747 7.08665C12.5747 6.72166 12.2854 6.42578 11.9285 6.42578ZM19.0713 6.42578C18.7144 6.42578 18.4251 6.72166 18.4251 7.08665C18.4251 7.45164 18.7144 7.74752 19.0713 7.74752C19.4283 7.74752 19.7176 7.45164 19.7176 7.08665C19.7176 6.72166 19.4283 6.42578 19.0713 6.42578Z" fill="white"/>
</g>
<defs>
<clipPath id="clip0_2428_93042">
<rect width="25" height="30" fill="white" transform="translate(3 1)"/>
</clipPath>
</defs>
</svg>
