<svg width="32" height="32" viewBox="0 0 32 32" fill="none" xmlns="http://www.w3.org/2000/svg">
<rect width="32" height="32" fill="white"/>
<g clip-path="url(#clip0_2428_93086)">
<path d="M16 23.4971C20.1421 23.4971 23.5 20.1392 23.5 15.9971C23.5 11.8549 20.1421 8.49707 16 8.49707C11.8579 8.49707 8.5 11.8549 8.5 15.9971C8.5 20.1392 11.8579 23.4971 16 23.4971Z" fill="white"/>
<path d="M15.9999 8.50003H28.9882C27.6721 6.21964 25.7787 4.32596 23.4986 3.0094C21.2185 1.69285 18.6319 0.999816 15.9989 1C13.366 1.00018 10.7795 1.69357 8.49956 3.01045C6.21961 4.32733 4.32655 6.22127 3.01074 8.50184L9.50487 19.75L9.51068 19.7485C8.85006 18.6093 8.50143 17.3161 8.49995 15.9992C8.49847 14.6823 8.84419 13.3883 9.50225 12.2476C10.1603 11.1069 11.1075 10.1599 12.2482 9.50192C13.389 8.84398 14.683 8.4984 15.9999 8.50003Z" fill="url(#paint0_linear_2428_93086)"/>
<path d="M16 21.9375C19.2792 21.9375 21.9375 19.2792 21.9375 16C21.9375 12.7208 19.2792 10.0625 16 10.0625C12.7208 10.0625 10.0625 12.7208 10.0625 16C10.0625 19.2792 12.7208 21.9375 16 21.9375Z" fill="#1A73E8"/>
<path d="M22.4944 19.7518L16.0002 31C18.6332 31.0004 21.2198 30.3075 23.5 28.9911C25.7802 27.6747 27.6737 25.7812 28.99 23.5009C30.3063 21.2207 30.999 18.634 30.9986 16.0011C30.9981 13.3682 30.3044 10.7818 28.9873 8.50195H15.9991L15.9976 8.50777C17.3145 8.50523 18.6088 8.84991 19.75 9.50707C20.8912 10.1642 21.839 11.1106 22.4978 12.2509C23.1567 13.3911 23.5032 14.6849 23.5026 16.0018C23.502 17.3187 23.1543 18.6122 22.4944 19.7518Z" fill="url(#paint1_linear_2428_93086)"/>
<path d="M9.5053 19.7521L3.01118 8.50391C1.69438 10.7839 1.00107 13.3704 1.00098 16.0033C1.00088 18.6363 1.69399 21.2228 3.01062 23.5029C4.32724 25.783 6.22098 27.6763 8.5014 28.9924C10.7818 30.3084 13.3686 31.0009 16.0015 31.0002L22.4956 19.752L22.4914 19.7477C21.8352 20.8894 20.8895 21.838 19.7498 22.4977C18.61 23.1574 17.3165 23.505 15.9996 23.5055C14.6827 23.5059 13.389 23.1592 12.2488 22.5002C11.1086 21.8413 10.1623 20.8934 9.5053 19.7521Z" fill="url(#paint2_linear_2428_93086)"/>
</g>
<defs>
<linearGradient id="paint0_linear_2428_93086" x1="3.01074" y1="10.375" x2="28.9882" y2="10.375" gradientUnits="userSpaceOnUse">
<stop stop-color="#D93025"/>
<stop offset="1" stop-color="#EA4335"/>
</linearGradient>
<linearGradient id="paint1_linear_2428_93086" x1="13.951" y1="30.7995" x2="26.9397" y2="8.30233" gradientUnits="userSpaceOnUse">
<stop stop-color="#FCC934"/>
<stop offset="1" stop-color="#FBBC04"/>
</linearGradient>
<linearGradient id="paint2_linear_2428_93086" x1="17.6237" y1="30.0636" x2="4.63499" y2="7.56641" gradientUnits="userSpaceOnUse">
<stop stop-color="#1E8E3E"/>
<stop offset="1" stop-color="#34A853"/>
</linearGradient>
<clipPath id="clip0_2428_93086">
<rect width="30" height="30" fill="white" transform="translate(1 1)"/>
</clipPath>
</defs>
</svg>
