<svg width="32" height="32" viewBox="0 0 32 32" fill="none" xmlns="http://www.w3.org/2000/svg">
<path d="M0 16C0 7.16344 7.16344 0 16 0V0C24.8366 0 32 7.16344 32 16V16C32 24.8366 24.8366 32 16 32V32C7.16344 32 0 24.8366 0 16V16Z" fill="white"/>
<g clip-path="url(#clip0_3509_49813)">
<path d="M16 21.9971C19.3137 21.9971 22 19.3108 22 15.9971C22 12.6834 19.3137 9.99707 16 9.99707C12.6863 9.99707 10 12.6834 10 15.9971C10 19.3108 12.6863 21.9971 16 21.9971Z" fill="white"/>
<path d="M15.9997 10H26.3903C25.3374 8.17571 23.8228 6.66077 21.9987 5.60752C20.1746 4.55428 18.1053 3.99985 15.999 4C13.8926 4.00015 11.8234 4.55486 9.99946 5.60836C8.17549 6.66186 6.66105 8.17702 5.6084 10.0015L10.8037 19L10.8083 18.9988C10.2798 18.0875 10.0009 17.0529 9.99977 15.9994C9.99858 14.9458 10.2752 13.9106 10.8016 12.9981C11.3281 12.0855 12.0858 11.3279 12.9984 10.8015C13.911 10.2752 14.9462 9.99872 15.9997 10Z" fill="url(#paint0_linear_3509_49813)"/>
<path d="M16 20.75C18.6234 20.75 20.75 18.6234 20.75 16C20.75 13.3766 18.6234 11.25 16 11.25C13.3766 11.25 11.25 13.3766 11.25 16C11.25 18.6234 13.3766 20.75 16 20.75Z" fill="#1A73E8"/>
<path d="M21.1955 19.0014L16.0002 27.9999C18.1065 28.0002 20.1758 27.4459 22 26.3928C23.8242 25.3397 25.339 23.8249 26.392 22.0007C27.445 20.1764 27.9992 18.1071 27.9988 16.0008C27.9985 13.8944 27.4435 11.8253 26.3898 10.0015H15.9993L15.998 10.0061C17.0516 10.0041 18.087 10.2798 19 10.8056C19.9129 11.3313 20.6712 12.0884 21.1983 13.0006C21.7253 13.9128 22.0026 14.9478 22.0021 16.0014C22.0016 17.0549 21.7234 18.0896 21.1955 19.0014Z" fill="url(#paint1_linear_3509_49813)"/>
<path d="M10.8044 19.0015L5.60914 10.0029C4.5557 11.8269 4.00106 13.8961 4.00098 16.0025C4.0009 18.1088 4.55539 20.1781 5.60869 22.0022C6.66199 23.8262 8.17698 25.3408 10.0013 26.3937C11.8257 27.4465 13.895 28.0005 16.0014 27.9999L21.1967 19.0014L21.1933 18.998C20.6683 19.9114 19.9118 20.6702 19 21.198C18.0882 21.7258 17.0534 22.0038 15.9999 22.0042C14.9464 22.0046 13.9114 21.7272 12.9992 21.2C12.0871 20.6728 11.3301 19.9145 10.8044 19.0015Z" fill="url(#paint2_linear_3509_49813)"/>
</g>
<defs>
<linearGradient id="paint0_linear_3509_49813" x1="5.6084" y1="11.5" x2="26.3903" y2="11.5" gradientUnits="userSpaceOnUse">
<stop stop-color="#D93025"/>
<stop offset="1" stop-color="#EA4335"/>
</linearGradient>
<linearGradient id="paint1_linear_3509_49813" x1="14.3608" y1="27.8395" x2="24.7518" y2="9.84176" gradientUnits="userSpaceOnUse">
<stop stop-color="#FCC934"/>
<stop offset="1" stop-color="#FBBC04"/>
</linearGradient>
<linearGradient id="paint2_linear_3509_49813" x1="17.2992" y1="27.2507" x2="6.90819" y2="9.25293" gradientUnits="userSpaceOnUse">
<stop stop-color="#1E8E3E"/>
<stop offset="1" stop-color="#34A853"/>
</linearGradient>
<clipPath id="clip0_3509_49813">
<rect width="24" height="24" fill="white" transform="translate(4 4)"/>
</clipPath>
</defs>
</svg>
