<svg width="32" height="32" viewBox="0 0 32 32" fill="none" xmlns="http://www.w3.org/2000/svg">
<rect width="32" height="32" fill="white"/>
<g clip-path="url(#clip0_2428_93094)">
<path d="M28.082 23.3242C27.6797 23.5333 27.2649 23.7172 26.8398 23.875C25.494 24.3759 24.0688 24.63 22.6328 24.625C17.0898 24.625 12.2617 20.8164 12.2617 15.918C12.2689 15.262 12.4508 14.6199 12.7886 14.0576C13.1264 13.4953 13.6079 13.0332 14.1836 12.7188C9.16797 12.9297 7.87891 18.1563 7.87891 21.2148C7.87891 29.8867 15.8594 30.7539 17.582 30.7539C18.5078 30.7539 19.9023 30.4844 20.7461 30.2148L20.8984 30.168C24.1274 29.0521 26.8801 26.8698 28.7031 23.9805C28.7561 23.8927 28.7788 23.7899 28.7678 23.688C28.7569 23.586 28.7127 23.4905 28.6423 23.416C28.5718 23.3416 28.4788 23.2923 28.3776 23.2757C28.2764 23.2591 28.1726 23.2761 28.082 23.3242Z" fill="url(#paint0_linear_2428_93094)"/>
<path opacity="0.35" d="M28.082 23.3242C27.6797 23.5333 27.2649 23.7172 26.8398 23.875C25.494 24.3759 24.0688 24.63 22.6328 24.625C17.0898 24.625 12.2617 20.8164 12.2617 15.918C12.2689 15.262 12.4508 14.6199 12.7886 14.0576C13.1264 13.4953 13.6079 13.0332 14.1836 12.7188C9.16797 12.9297 7.87891 18.1563 7.87891 21.2148C7.87891 29.8867 15.8594 30.7539 17.582 30.7539C18.5078 30.7539 19.9023 30.4844 20.7461 30.2148L20.8984 30.168C24.1274 29.0521 26.8801 26.8698 28.7031 23.9805C28.7561 23.8927 28.7788 23.7899 28.7678 23.688C28.7569 23.586 28.7127 23.4905 28.6423 23.416C28.5718 23.3416 28.4788 23.2923 28.3776 23.2757C28.2764 23.2591 28.1726 23.2761 28.082 23.3242Z" fill="url(#paint1_radial_2428_93094)"/>
<path d="M13.3869 29.2773C12.3437 28.6295 11.4396 27.7811 10.7267 26.7812C9.91264 25.667 9.35229 24.3881 9.08496 23.0344C8.81764 21.6806 8.84981 20.2847 9.17924 18.9447C9.50866 17.6046 10.1273 16.3529 10.9919 15.2774C11.8564 14.2019 12.9458 13.3285 14.1837 12.7188C14.5587 12.543 15.1798 12.2383 16.0119 12.25C16.5973 12.2545 17.1738 12.3944 17.6963 12.6587C18.2188 12.923 18.673 13.3045 19.0236 13.7734C19.4951 14.4075 19.7535 15.1747 19.7619 15.9648C19.7619 15.9414 22.6329 6.63672 10.3869 6.63672C5.24232 6.63672 1.01185 11.5117 1.01185 15.8008C0.99139 18.0664 1.47577 20.3082 2.42982 22.3633C3.99225 25.6903 6.72186 28.3278 10.1005 29.7751C13.4791 31.2225 17.2716 31.379 20.7579 30.2148C19.5365 30.6006 18.2459 30.7166 16.9753 30.5547C15.7046 30.3928 14.4843 29.957 13.3986 29.2773H13.3869Z" fill="url(#paint2_linear_2428_93094)"/>
<path opacity="0.41" d="M13.3869 29.2773C12.3437 28.6295 11.4396 27.7811 10.7267 26.7812C9.91264 25.667 9.35229 24.3881 9.08496 23.0344C8.81764 21.6806 8.84981 20.2847 9.17924 18.9447C9.50866 17.6046 10.1273 16.3529 10.9919 15.2774C11.8564 14.2019 12.9458 13.3285 14.1837 12.7188C14.5587 12.543 15.1798 12.2383 16.0119 12.25C16.5973 12.2545 17.1738 12.3944 17.6963 12.6587C18.2188 12.923 18.673 13.3045 19.0236 13.7734C19.4951 14.4075 19.7535 15.1747 19.7619 15.9648C19.7619 15.9414 22.6329 6.63672 10.3869 6.63672C5.24232 6.63672 1.01185 11.5117 1.01185 15.8008C0.99139 18.0664 1.47577 20.3082 2.42982 22.3633C3.99225 25.6903 6.72186 28.3278 10.1005 29.7751C13.4791 31.2225 17.2716 31.379 20.7579 30.2148C19.5365 30.6006 18.2459 30.7166 16.9753 30.5547C15.7046 30.3928 14.4843 29.957 13.3986 29.2773H13.3869Z" fill="url(#paint3_radial_2428_93094)"/>
<path d="M18.8594 18.4375C18.7539 18.5547 18.4609 18.7305 18.4609 19.0938C18.4609 19.3984 18.6602 19.7031 19.0234 19.9492C20.6992 21.1211 23.875 20.957 23.8867 20.957C25.136 20.9562 26.3622 20.6203 27.4375 19.9844C28.5201 19.3512 29.4184 18.446 30.0432 17.3586C30.6681 16.2712 30.998 15.0393 31 13.7852C31.0352 11.1602 30.0625 9.41406 29.6758 8.64062C27.1797 3.78906 21.8242 1 16 1C12.058 0.99961 8.27434 2.55097 5.46728 5.31856C2.66023 8.08615 1.05543 11.8475 1 15.7891C1.05859 11.5117 5.3125 8.05469 10.375 8.05469C10.7852 8.05469 13.1289 8.08984 15.2969 9.22656C16.82 9.98342 18.0813 11.1794 18.918 12.6602C19.6328 13.9023 19.7617 15.4844 19.7617 16.1172C19.7617 16.75 19.4453 17.6758 18.8477 18.4492L18.8594 18.4375Z" fill="url(#paint4_radial_2428_93094)"/>
<path d="M18.8594 18.4375C18.7539 18.5547 18.4609 18.7305 18.4609 19.0938C18.4609 19.3984 18.6602 19.7031 19.0234 19.9492C20.6992 21.1211 23.875 20.957 23.8867 20.957C25.136 20.9562 26.3622 20.6203 27.4375 19.9844C28.5201 19.3512 29.4184 18.446 30.0432 17.3586C30.6681 16.2712 30.998 15.0393 31 13.7852C31.0352 11.1602 30.0625 9.41406 29.6758 8.64062C27.1797 3.78906 21.8242 1 16 1C12.058 0.99961 8.27434 2.55097 5.46728 5.31856C2.66023 8.08615 1.05543 11.8475 1 15.7891C1.05859 11.5117 5.3125 8.05469 10.375 8.05469C10.7852 8.05469 13.1289 8.08984 15.2969 9.22656C16.82 9.98342 18.0813 11.1794 18.918 12.6602C19.6328 13.9023 19.7617 15.4844 19.7617 16.1172C19.7617 16.75 19.4453 17.6758 18.8477 18.4492L18.8594 18.4375Z" fill="url(#paint5_radial_2428_93094)"/>
</g>
<defs>
<linearGradient id="paint0_linear_2428_93094" x1="7.87891" y1="21.7422" x2="28.7852" y2="21.7422" gradientUnits="userSpaceOnUse">
<stop stop-color="#0C59A4"/>
<stop offset="1" stop-color="#114A8B"/>
</linearGradient>
<radialGradient id="paint1_radial_2428_93094" cx="0" cy="0" r="1" gradientUnits="userSpaceOnUse" gradientTransform="translate(19.4219 21.8998) scale(11.1797 10.6207)">
<stop offset="0.7" stop-opacity="0"/>
<stop offset="0.9" stop-opacity="0.5"/>
<stop offset="1"/>
</radialGradient>
<linearGradient id="paint2_linear_2428_93094" x1="18.8947" y1="12.6719" x2="5.8517" y2="26.8867" gradientUnits="userSpaceOnUse">
<stop stop-color="#1B9DE2"/>
<stop offset="0.2" stop-color="#1595DF"/>
<stop offset="0.7" stop-color="#0680D7"/>
<stop offset="1" stop-color="#0078D4"/>
</linearGradient>
<radialGradient id="paint3_radial_2428_93094" cx="0" cy="0" r="1" gradientUnits="userSpaceOnUse" gradientTransform="translate(9.2683 24.3129) rotate(-81.3844) scale(16.8031 13.5752)">
<stop offset="0.8" stop-opacity="0"/>
<stop offset="0.9" stop-opacity="0.5"/>
<stop offset="1"/>
</radialGradient>
<radialGradient id="paint4_radial_2428_93094" cx="0" cy="0" r="1" gradientUnits="userSpaceOnUse" gradientTransform="translate(4.03398 6.54484) rotate(92.2906) scale(23.7377 50.5564)">
<stop stop-color="#35C1F1"/>
<stop offset="0.1" stop-color="#34C1ED"/>
<stop offset="0.2" stop-color="#2FC2DF"/>
<stop offset="0.3" stop-color="#2BC3D2"/>
<stop offset="0.7" stop-color="#36C752"/>
</radialGradient>
<radialGradient id="paint5_radial_2428_93094" cx="0" cy="0" r="1" gradientUnits="userSpaceOnUse" gradientTransform="translate(29.132 10.0586) rotate(73.7398) scale(11.4023 9.27239)">
<stop stop-color="#66EB6E"/>
<stop offset="1" stop-color="#66EB6E" stop-opacity="0"/>
</radialGradient>
<clipPath id="clip0_2428_93094">
<rect width="30" height="30" fill="white" transform="translate(1 1)"/>
</clipPath>
</defs>
</svg>
