<svg width="32" height="32" viewBox="0 0 32 32" fill="none" xmlns="http://www.w3.org/2000/svg">
<path d="M0 16C0 7.16344 7.16344 0 16 0V0C24.8366 0 32 7.16344 32 16V16C32 24.8366 24.8366 32 16 32V32C7.16344 32 0 24.8366 0 16V16Z" fill="white"/>
<g clip-path="url(#clip0_3509_49821)">
<path d="M24.8601 21.3711C24.565 21.5244 24.2608 21.6593 23.9491 21.775C22.9622 22.1423 21.9171 22.3287 20.864 22.325C16.7991 22.325 13.2585 19.532 13.2585 15.9398C13.2638 15.4588 13.3971 14.9879 13.6449 14.5756C13.8926 14.1632 14.2457 13.8243 14.6679 13.5938C10.9897 13.7484 10.0444 17.5813 10.0444 19.8242C10.0444 26.1836 15.8968 26.8195 17.1601 26.8195C17.839 26.8195 18.8616 26.6219 19.4804 26.4242L19.5921 26.3898C21.96 25.5715 23.9786 23.9712 25.3155 21.8523C25.3544 21.788 25.3711 21.7126 25.363 21.6379C25.3549 21.5631 25.3226 21.493 25.2709 21.4384C25.2192 21.3838 25.151 21.3477 25.0768 21.3355C25.0026 21.3233 24.9265 21.3358 24.8601 21.3711Z" fill="url(#paint0_linear_3509_49821)"/>
<path opacity="0.35" d="M24.8601 21.3711C24.565 21.5244 24.2608 21.6593 23.9491 21.775C22.9622 22.1423 21.9171 22.3287 20.864 22.325C16.7991 22.325 13.2585 19.532 13.2585 15.9398C13.2638 15.4588 13.3971 14.9879 13.6449 14.5756C13.8926 14.1632 14.2457 13.8243 14.6679 13.5938C10.9897 13.7484 10.0444 17.5813 10.0444 19.8242C10.0444 26.1836 15.8968 26.8195 17.1601 26.8195C17.839 26.8195 18.8616 26.6219 19.4804 26.4242L19.5921 26.3898C21.96 25.5715 23.9786 23.9712 25.3155 21.8523C25.3544 21.788 25.3711 21.7126 25.363 21.6379C25.3549 21.5631 25.3226 21.493 25.2709 21.4384C25.2192 21.3838 25.151 21.3477 25.0768 21.3355C25.0026 21.3233 24.9265 21.3358 24.8601 21.3711Z" fill="url(#paint1_radial_3509_49821)"/>
<path d="M14.0838 25.7369C13.3188 25.2618 12.6557 24.6396 12.133 23.9064C11.536 23.0893 11.1251 22.1515 10.929 21.1587C10.733 20.1659 10.7566 19.1423 10.9982 18.1596C11.2398 17.1769 11.6935 16.259 12.3274 15.4703C12.9614 14.6816 13.7604 14.0411 14.6681 13.5939C14.9431 13.465 15.3986 13.2416 16.0088 13.2502C16.4381 13.2535 16.8609 13.3561 17.244 13.5499C17.6271 13.7437 17.9603 14.0235 18.2174 14.3674C18.5631 14.8324 18.7527 15.395 18.7588 15.9744C18.7588 15.9572 20.8642 9.13379 11.8838 9.13379C8.1111 9.13379 5.00876 12.7088 5.00876 15.8541C4.99375 17.5156 5.34896 19.1595 6.0486 20.6666C7.19438 23.1064 9.19609 25.0406 11.6738 26.102C14.1514 27.1634 16.9326 27.2781 19.4892 26.4244C18.5935 26.7073 17.647 26.7923 16.7153 26.6736C15.7835 26.5549 14.8885 26.2353 14.0924 25.7369H14.0838Z" fill="url(#paint2_linear_3509_49821)"/>
<path opacity="0.41" d="M14.0838 25.7369C13.3188 25.2618 12.6557 24.6396 12.133 23.9064C11.536 23.0893 11.1251 22.1515 10.929 21.1587C10.733 20.1659 10.7566 19.1423 10.9982 18.1596C11.2398 17.1769 11.6935 16.259 12.3274 15.4703C12.9614 14.6816 13.7604 14.0411 14.6681 13.5939C14.9431 13.465 15.3986 13.2416 16.0088 13.2502C16.4381 13.2535 16.8609 13.3561 17.244 13.5499C17.6271 13.7437 17.9603 14.0235 18.2174 14.3674C18.5631 14.8324 18.7527 15.395 18.7588 15.9744C18.7588 15.9572 20.8642 9.13379 11.8838 9.13379C8.1111 9.13379 5.00876 12.7088 5.00876 15.8541C4.99375 17.5156 5.34896 19.1595 6.0486 20.6666C7.19438 23.1064 9.19609 25.0406 11.6738 26.102C14.1514 27.1634 16.9326 27.2781 19.4892 26.4244C18.5935 26.7073 17.647 26.7923 16.7153 26.6736C15.7835 26.5549 14.8885 26.2353 14.0924 25.7369H14.0838Z" fill="url(#paint3_radial_3509_49821)"/>
<path d="M18.0969 17.7875C18.0195 17.8734 17.8047 18.0023 17.8047 18.2687C17.8047 18.4922 17.9508 18.7156 18.2172 18.8961C19.4461 19.7555 21.775 19.6352 21.7836 19.6352C22.6997 19.6346 23.5989 19.3882 24.3875 18.9219C25.1814 18.4575 25.8401 17.7937 26.2984 16.9963C26.7566 16.1989 26.9985 15.2955 27 14.3758C27.0258 12.4508 26.3125 11.1703 26.0289 10.6031C24.1984 7.04531 20.2711 5 16 5C13.1092 4.99971 10.3345 6.13738 8.27601 8.16694C6.2175 10.1965 5.04065 12.9548 5 15.8453C5.04297 12.7086 8.1625 10.1734 11.875 10.1734C12.1758 10.1734 13.8945 10.1992 15.4844 11.0328C16.6013 11.5878 17.5263 12.4649 18.1398 13.5508C18.6641 14.4617 18.7586 15.6219 18.7586 16.0859C18.7586 16.55 18.5266 17.2289 18.0883 17.7961L18.0969 17.7875Z" fill="url(#paint4_radial_3509_49821)"/>
<path d="M18.0969 17.7875C18.0195 17.8734 17.8047 18.0023 17.8047 18.2687C17.8047 18.4922 17.9508 18.7156 18.2172 18.8961C19.4461 19.7555 21.775 19.6352 21.7836 19.6352C22.6997 19.6346 23.5989 19.3882 24.3875 18.9219C25.1814 18.4575 25.8401 17.7937 26.2984 16.9963C26.7566 16.1989 26.9985 15.2955 27 14.3758C27.0258 12.4508 26.3125 11.1703 26.0289 10.6031C24.1984 7.04531 20.2711 5 16 5C13.1092 4.99971 10.3345 6.13738 8.27601 8.16694C6.2175 10.1965 5.04065 12.9548 5 15.8453C5.04297 12.7086 8.1625 10.1734 11.875 10.1734C12.1758 10.1734 13.8945 10.1992 15.4844 11.0328C16.6013 11.5878 17.5263 12.4649 18.1398 13.5508C18.6641 14.4617 18.7586 15.6219 18.7586 16.0859C18.7586 16.55 18.5266 17.2289 18.0883 17.7961L18.0969 17.7875Z" fill="url(#paint5_radial_3509_49821)"/>
</g>
<defs>
<linearGradient id="paint0_linear_3509_49821" x1="10.0444" y1="20.2109" x2="25.3757" y2="20.2109" gradientUnits="userSpaceOnUse">
<stop stop-color="#0C59A4"/>
<stop offset="1" stop-color="#114A8B"/>
</linearGradient>
<radialGradient id="paint1_radial_3509_49821" cx="0" cy="0" r="1" gradientUnits="userSpaceOnUse" gradientTransform="translate(18.5093 20.3265) scale(8.19844 7.78852)">
<stop offset="0.7" stop-opacity="0"/>
<stop offset="0.9" stop-opacity="0.5"/>
<stop offset="1"/>
</radialGradient>
<linearGradient id="paint2_linear_3509_49821" x1="18.1228" y1="13.5596" x2="8.55798" y2="23.9838" gradientUnits="userSpaceOnUse">
<stop stop-color="#1B9DE2"/>
<stop offset="0.2" stop-color="#1595DF"/>
<stop offset="0.7" stop-color="#0680D7"/>
<stop offset="1" stop-color="#0078D4"/>
</linearGradient>
<radialGradient id="paint3_radial_3509_49821" cx="0" cy="0" r="1" gradientUnits="userSpaceOnUse" gradientTransform="translate(11.0635 22.0963) rotate(-81.3844) scale(12.3222 9.95513)">
<stop offset="0.8" stop-opacity="0"/>
<stop offset="0.9" stop-opacity="0.5"/>
<stop offset="1"/>
</radialGradient>
<radialGradient id="paint4_radial_3509_49821" cx="0" cy="0" r="1" gradientUnits="userSpaceOnUse" gradientTransform="translate(7.22492 9.06622) rotate(92.2906) scale(17.4077 37.0747)">
<stop stop-color="#35C1F1"/>
<stop offset="0.1" stop-color="#34C1ED"/>
<stop offset="0.2" stop-color="#2FC2DF"/>
<stop offset="0.3" stop-color="#2BC3D2"/>
<stop offset="0.7" stop-color="#36C752"/>
</radialGradient>
<radialGradient id="paint5_radial_3509_49821" cx="0" cy="0" r="1" gradientUnits="userSpaceOnUse" gradientTransform="translate(25.6302 11.643) rotate(73.7398) scale(8.36172 6.79975)">
<stop stop-color="#66EB6E"/>
<stop offset="1" stop-color="#66EB6E" stop-opacity="0"/>
</radialGradient>
<clipPath id="clip0_3509_49821">
<rect width="22" height="22" fill="white" transform="translate(5 5)"/>
</clipPath>
</defs>
</svg>
