<svg width="32" height="32" viewBox="0 0 32 32" fill="none" xmlns="http://www.w3.org/2000/svg">
<path d="M0 16C0 7.16344 7.16344 0 16 0V0C24.8366 0 32 7.16344 32 16V16C32 24.8366 24.8366 32 16 32V32C7.16344 32 0 24.8366 0 16V16Z" fill="white"/>
<g clip-path="url(#clip0_3509_49801)">
<path d="M23.5843 21.0861C23.2893 21.7848 22.9402 22.428 22.5356 23.0193C21.9843 23.8255 21.5328 24.3835 21.1849 24.6934C20.6455 25.202 20.0676 25.4625 19.4488 25.4773C19.0046 25.4773 18.4688 25.3477 17.8452 25.0847C17.2195 24.823 16.6445 24.6934 16.1188 24.6934C15.5674 24.6934 14.976 24.823 14.3435 25.0847C13.71 25.3477 13.1997 25.4847 12.8095 25.4983C12.2161 25.5242 11.6246 25.2563 11.0342 24.6934C10.6574 24.3563 10.186 23.7786 9.62141 22.9601C9.0156 22.086 8.51755 21.0725 8.12736 19.917C7.70948 18.6689 7.5 17.4603 7.5 16.2902C7.5 14.9498 7.78244 13.7938 8.34816 12.8251C8.79276 12.047 9.38424 11.4332 10.1245 10.9826C10.8648 10.5319 11.6647 10.3023 12.5261 10.2876C12.9974 10.2876 13.6155 10.4371 14.3836 10.731C15.1495 11.0258 15.6413 11.1753 15.8569 11.1753C16.0182 11.1753 16.5645 11.0005 17.4907 10.6519C18.3665 10.3287 19.1057 10.1949 19.7113 10.2476C21.3522 10.3834 22.585 11.0467 23.4049 12.2418C21.9373 13.1536 21.2113 14.4307 21.2258 16.0691C21.239 17.3452 21.6905 18.4071 22.5778 19.2503C22.9799 19.6417 23.4289 19.9441 23.9286 20.1589C23.8202 20.4812 23.7058 20.7898 23.5843 21.0861ZM19.8208 5.90011C19.8208 6.90034 19.4645 7.83425 18.7542 8.69867C17.897 9.72629 16.8602 10.3201 15.7358 10.2264C15.7215 10.1064 15.7132 9.98011 15.7132 9.8474C15.7132 8.88718 16.1208 7.85956 16.8448 7.01934C17.2062 6.59392 17.6658 6.24019 18.2232 5.95801C18.7794 5.68005 19.3056 5.52632 19.8004 5.5C19.8148 5.63371 19.8208 5.76745 19.8208 5.90011Z" fill="black"/>
</g>
<defs>
<clipPath id="clip0_3509_49801">
<rect width="16.4286" height="20" fill="white" transform="translate(7.5 5.5)"/>
</clipPath>
</defs>
</svg>
