<svg width="32" height="32" viewBox="0 0 32 32" fill="none" xmlns="http://www.w3.org/2000/svg">
<rect width="32" height="32" fill="white"/>
<g clip-path="url(#clip0_2428_93071)">
<path d="M27.518 23.8205C27.105 24.7987 26.6162 25.6992 26.0499 26.5271C25.278 27.6557 24.6459 28.4369 24.1588 28.8707C23.4037 29.5828 22.5947 29.9475 21.7283 29.9682C21.1064 29.9682 20.3564 29.7867 19.4833 29.4186C18.6074 29.0522 17.8024 28.8707 17.0663 28.8707C16.2944 28.8707 15.4665 29.0522 14.5809 29.4186C13.694 29.7867 12.9795 29.9786 12.4333 29.9976C11.6025 30.0339 10.7744 29.6588 9.94788 28.8707C9.42033 28.3989 8.76046 27.59 7.96998 26.4441C7.12185 25.2205 6.42456 23.8015 5.8783 22.1838C5.29327 20.4364 5 18.7444 5 17.1062C5 15.2298 5.39541 13.6114 6.18742 12.2551C6.80986 11.1657 7.63794 10.3064 8.67434 9.67557C9.71074 9.04473 10.8306 8.72326 12.0365 8.70269C12.6964 8.70269 13.5617 8.91199 14.637 9.32334C15.7093 9.73606 16.3979 9.94537 16.6997 9.94537C16.9254 9.94537 17.6903 9.70063 18.9869 9.21272C20.2131 8.76024 21.248 8.57289 22.0958 8.64669C24.3931 8.83681 26.119 9.76545 27.2668 11.4385C25.2122 12.715 24.1959 14.503 24.2161 16.7967C24.2346 18.5833 24.8667 20.07 26.1089 21.2505C26.6718 21.7983 27.3005 22.2218 28 22.5225C27.8483 22.9736 27.6882 23.4057 27.518 23.8205ZM22.2492 2.56016C22.2492 3.96048 21.7503 5.26795 20.7558 6.47814C19.5558 7.91681 18.1042 8.74814 16.5302 8.61696C16.5101 8.44897 16.4985 8.27216 16.4985 8.08636C16.4985 6.74206 17.0692 5.30338 18.0827 4.12707C18.5886 3.53149 19.2322 3.03627 20.0125 2.64122C20.7912 2.25206 21.5278 2.03685 22.2205 2C22.2407 2.1872 22.2492 2.37443 22.2492 2.56016Z" fill="#1F1814"/>
</g>
<defs>
<clipPath id="clip0_2428_93071">
<rect width="23" height="28" fill="white" transform="translate(5 2)"/>
</clipPath>
</defs>
</svg>
