<svg width="32" height="32" viewBox="0 0 32 32" fill="none" xmlns="http://www.w3.org/2000/svg">
<path d="M0 16C0 7.16344 7.16344 0 16 0V0C24.8366 0 32 7.16344 32 16V16C32 24.8366 24.8366 32 16 32V32C7.16344 32 0 24.8366 0 16V16Z" fill="white"/>
<g clip-path="url(#clip0_3509_49810)">
<path d="M15.3351 10.5901C15.3351 10.6606 15.2646 10.6606 15.2646 10.6606H15.194C15.1235 10.6606 15.1235 10.5901 15.053 10.5196C15.053 10.5196 14.9825 10.4491 14.9825 10.3785C14.9825 10.308 14.9825 10.308 15.053 10.308L15.194 10.3785C15.2646 10.4491 15.3351 10.5196 15.3351 10.5901ZM14.0658 9.88495C14.0658 9.53238 13.9248 9.32085 13.7133 9.32085C13.7133 9.32085 13.7133 9.39136 13.6428 9.39136V9.53238H13.8543C13.8543 9.67341 13.9248 9.74392 13.9248 9.88495H14.0658ZM16.5338 9.53238C16.6748 9.53238 16.7453 9.67341 16.8158 9.88495H16.9569C16.8863 9.81444 16.8863 9.74392 16.8863 9.67341C16.8863 9.6029 16.8863 9.53238 16.8158 9.46187C16.7453 9.39136 16.6748 9.32085 16.6043 9.32085C16.6043 9.32085 16.5338 9.39136 16.4633 9.39136C16.4633 9.46187 16.5338 9.46187 16.5338 9.53238ZM14.4184 10.6606C14.3479 10.6606 14.3479 10.6606 14.3479 10.5901C14.3479 10.5196 14.3479 10.4491 14.4184 10.3785C14.5594 10.3785 14.6299 10.308 14.6299 10.308C14.7004 10.308 14.7004 10.3785 14.7004 10.3785C14.7004 10.4491 14.6299 10.5196 14.4889 10.6606H14.4184ZM13.6428 10.5901C13.3607 10.4491 13.2902 10.2375 13.2902 9.88495C13.2902 9.67341 13.2902 9.53238 13.4312 9.39136C13.5017 9.25033 13.6428 9.17982 13.7838 9.17982C13.9248 9.17982 13.9953 9.25033 14.1363 9.39136C14.2069 9.6029 14.2774 9.81444 14.2774 10.026V10.167H14.3479V10.0965C14.4184 10.0965 14.4184 9.95546 14.4184 9.67341C14.4184 9.46187 14.4184 9.25033 14.2774 9.03879C14.1363 8.82726 13.9953 8.68623 13.7133 8.68623C13.5017 8.68623 13.2902 8.82726 13.2197 9.03879C13.0787 9.32085 13.0504 9.53238 13.0504 9.88495C13.0504 10.167 13.1492 10.4491 13.4312 10.7311C13.5017 10.6606 13.5722 10.6606 13.6428 10.5901ZM22.4569 20.5324C22.5274 20.5324 22.5274 20.5042 22.5274 20.4407C22.5274 20.2856 22.4569 20.1023 22.2453 19.8978C22.0338 19.6862 21.6812 19.5523 21.2581 19.4958C21.1876 19.4888 21.1171 19.4888 21.1171 19.4888C21.0466 19.4747 21.0466 19.4747 20.9761 19.4747C20.9056 19.4676 20.7646 19.4535 20.694 19.4394C20.9056 18.7837 20.9761 18.2055 20.9761 17.6978C20.9761 16.9926 20.8351 16.4991 20.553 16.076C20.271 15.6529 19.9889 15.4414 19.6363 15.3708C19.5658 15.4414 19.5658 15.4414 19.5658 15.5119C19.9184 15.6529 20.271 15.9349 20.4825 16.358C20.694 16.8516 20.7646 17.2747 20.7646 17.7683C20.7646 18.1632 20.694 18.7484 20.412 19.4958C20.1299 19.6087 19.8479 19.8696 19.6363 20.2785C19.6363 20.342 19.6363 20.3773 19.7069 20.3773C19.7069 20.3773 19.7774 20.3138 19.8479 20.1939C19.9889 20.0741 20.0594 19.9542 20.2004 19.8343C20.412 19.7144 20.553 19.651 20.7646 19.651C21.1171 19.651 21.4697 19.7003 21.6812 19.7991C21.9633 19.8907 22.1043 19.9894 22.1748 20.1023C22.2453 20.208 22.3158 20.3067 22.3863 20.3984C22.3863 20.4901 22.4569 20.5324 22.4569 20.5324ZM15.9697 10.308C15.8992 10.2375 15.8992 10.0965 15.8992 9.95546C15.8992 9.67341 15.8992 9.53238 16.0402 9.32085C16.1812 9.17982 16.3222 9.10931 16.4633 9.10931C16.6748 9.10931 16.8158 9.25033 16.9569 9.39136C17.0274 9.6029 17.0979 9.74392 17.0979 9.95546C17.0979 10.308 16.9569 10.5196 16.6748 10.5901C16.6748 10.5901 16.7453 10.6606 16.8158 10.6606C16.9569 10.6606 17.0274 10.7311 17.1684 10.8016C17.2389 10.3785 17.3094 10.0965 17.3094 9.74392C17.3094 9.32085 17.2389 9.03879 17.0979 8.82726C16.8863 8.61572 16.6748 8.5452 16.3928 8.5452C16.1812 8.5452 15.9697 8.61572 15.7581 8.75674C15.6171 8.96828 15.5466 9.10931 15.5466 9.32085C15.5466 9.67341 15.6171 9.95546 15.7581 10.2375C15.8287 10.2375 15.8992 10.308 15.9697 10.308ZM16.8158 11.4362C15.8992 12.0708 15.194 12.3529 14.6299 12.3529C14.1363 12.3529 13.6428 12.1414 13.2197 11.7888C13.2902 11.9298 13.3607 12.0708 13.4312 12.1414L13.8543 12.5644C14.1363 12.8465 14.4889 12.9875 14.8415 12.9875C15.3351 12.9875 15.8992 12.7055 16.6043 12.2119L17.2389 11.7888C17.3799 11.6478 17.521 11.5067 17.521 11.2952C17.521 11.2247 17.521 11.1542 17.4504 11.1542C17.3799 11.0132 17.0274 10.8016 16.3222 10.5901C15.6876 10.308 15.194 10.167 14.912 10.167C14.7004 10.167 14.3479 10.308 13.8543 10.5901C13.4312 10.8721 13.1492 11.1542 13.1492 11.4362C13.1492 11.4362 13.2197 11.5067 13.2902 11.6478C13.7133 12.0003 14.1363 12.2119 14.5594 12.2119C15.1235 12.2119 15.8287 11.9298 16.7453 11.2247V11.3657C16.8158 11.3657 16.8158 11.4362 16.8158 11.4362ZM18.4376 25.6798C18.7197 26.2101 19.2133 26.4766 19.7774 26.4766C19.9184 26.4766 20.0594 26.4555 20.2004 26.4132C20.3415 26.3849 20.4825 26.3356 20.553 26.2792C20.6235 26.2298 20.694 26.1805 20.7646 26.1241C20.9056 26.0747 20.9056 26.0394 20.9761 26.0042L22.1748 24.9676C22.4569 24.7427 22.7389 24.546 23.0915 24.3753C23.3735 24.2061 23.6556 24.0933 23.7966 24.0298C24.0081 23.9734 24.1492 23.8888 24.2902 23.776C24.3607 23.6702 24.4312 23.5362 24.4312 23.367C24.4312 23.1625 24.2902 23.0074 24.1492 22.8946C24.0081 22.7817 23.8671 22.7042 23.7261 22.6548C23.5851 22.6055 23.444 22.4926 23.2325 22.3023C23.0915 22.1189 22.9504 21.8651 22.8799 21.5337L22.8094 21.1247C22.7389 20.9343 22.7389 20.7933 22.6684 20.7157C22.6684 20.6946 22.6684 20.6875 22.5979 20.6875C22.5274 20.6875 22.3863 20.751 22.3158 20.8708C22.1748 20.9907 22.0338 21.1247 21.8928 21.2657C21.8222 21.4067 21.6107 21.5337 21.4697 21.6535C21.2581 21.7734 21.0466 21.8369 20.9056 21.8369C20.3415 21.8369 20.0594 21.6817 19.8479 21.3785C19.7069 21.1529 19.6363 20.892 19.5658 20.5958C19.4248 20.476 19.3543 20.4125 19.2133 20.4125C18.8607 20.4125 18.7197 20.7792 18.7197 21.5196V23.7125C18.7197 23.776 18.6492 23.917 18.6492 24.1356C18.5787 24.3542 18.5787 24.6024 18.5787 24.883L18.4376 25.6657V25.6777M8.21327 25.3047C8.86904 25.4006 9.62353 25.6058 10.4767 25.9189C11.3299 26.2291 11.8517 26.3913 12.0421 26.3913C12.5357 26.3913 12.9447 26.1727 13.2831 25.7503C13.3537 25.6135 13.3537 25.4528 13.3537 25.268C13.3537 24.6017 12.9517 23.7591 12.1479 22.7366L11.6684 22.0949C11.5697 21.961 11.4498 21.7565 11.2947 21.4815C11.1466 21.2065 11.0126 20.9949 10.9069 20.8469C10.8152 20.6847 10.6671 20.5225 10.4767 20.3603C10.2934 20.1982 10.0819 20.0924 9.84917 20.036C9.55301 20.0924 9.34853 20.1911 9.24981 20.3251C9.15109 20.4591 9.09468 20.6071 9.08058 20.7623C9.05942 20.9103 9.01712 21.0091 8.9466 21.0584C8.87609 21.1007 8.75622 21.136 8.59404 21.1712C8.55878 21.1712 8.49532 21.1712 8.40365 21.1783H8.21327C7.83955 21.1783 7.58571 21.2206 7.45173 21.2911C7.27545 21.4956 7.18378 21.7283 7.18378 21.9751C7.18378 22.0879 7.21199 22.2783 7.2684 22.5462C7.32481 22.8071 7.35301 23.0187 7.35301 23.1667C7.35301 23.4558 7.2684 23.7449 7.09212 24.0341C6.91583 24.3373 6.82417 24.5629 6.82417 24.7237C6.89468 24.9973 7.36007 25.1898 8.21327 25.3026M10.5613 18.893C10.5613 18.4064 10.6883 17.8705 10.9492 17.2359C11.203 16.6013 11.4569 16.1782 11.7037 15.8962C11.6896 15.8257 11.6543 15.8257 11.5979 15.8257L11.5274 15.7551C11.3229 15.9667 11.0761 16.4603 10.7799 17.1654C10.4838 17.8 10.3287 18.3853 10.3287 18.8154C10.3287 19.1327 10.4062 19.4077 10.5472 19.6474C10.7024 19.8801 11.0761 20.2186 11.6684 20.6487L12.4158 21.1353C13.2126 21.8263 13.6357 22.3058 13.6357 22.5878C13.6357 22.7359 13.5652 22.884 13.3537 23.0462C13.2126 23.2154 13.0222 23.3 12.8601 23.3C12.846 23.3 12.8389 23.3141 12.8389 23.3494C12.8389 23.3564 12.9094 23.4974 13.0575 23.7724C13.3537 24.1744 13.9883 24.3718 14.8344 24.3718C16.3857 24.3718 17.5844 23.7372 18.5011 22.468C18.5011 22.1154 18.5011 21.8968 18.4306 21.8051V21.5442C18.4306 21.0859 18.5011 20.7404 18.6421 20.5148C18.7831 20.2891 18.9242 20.1833 19.1357 20.1833C19.2767 20.1833 19.4178 20.2327 19.5588 20.3385C19.6293 19.7955 19.6293 19.3231 19.6293 18.9C19.6293 18.2583 19.6293 17.7295 19.4883 17.2359C19.4178 16.8128 19.2767 16.4603 19.1357 16.1782L18.7126 15.5436C18.5716 15.3321 18.5011 15.1205 18.3601 14.909C18.2896 14.6269 18.219 14.4154 18.219 14.0628C18.0075 13.7103 17.8665 13.3577 17.6549 13.0051C17.5139 12.6526 17.3729 12.3 17.2319 12.018L16.5972 12.5116C15.8921 13.0051 15.328 13.2167 14.8344 13.2167C14.4113 13.2167 14.0588 13.1462 13.8472 12.8641L13.4242 12.5116C13.4242 12.7231 13.3537 13.0051 13.2126 13.2872L12.7684 14.1333C12.571 14.6269 12.4652 14.909 12.444 15.1205C12.4158 15.2616 12.3947 15.4026 12.3806 15.4026L11.8517 16.4603C11.2806 17.518 10.9915 18.4981 10.9915 19.309C10.9915 19.4712 11.0056 19.6404 11.0338 19.8096C10.7165 19.591 10.5613 19.2878 10.5613 18.893ZM15.6101 25.5635C14.6934 25.5635 13.9883 25.6876 13.4947 25.9337V25.9125C13.1421 26.3356 12.7472 26.5542 12.1972 26.5542C11.8517 26.5542 11.3088 26.4202 10.5754 26.1523C9.83507 25.8984 9.1793 25.7038 8.60814 25.5755C8.55173 25.5592 8.42481 25.5353 8.22032 25.5028C8.02289 25.4711 7.83955 25.4387 7.67737 25.4062C7.5293 25.3745 7.36007 25.3266 7.17673 25.2617C7.00045 25.206 6.85942 25.1333 6.75365 25.0452C6.65635 24.9564 6.6084 24.8562 6.6084 24.7441C6.6084 24.6313 6.63237 24.5107 6.68032 24.3824C6.72545 24.3048 6.77481 24.2273 6.82417 24.1567C6.87353 24.0792 6.91583 24.0087 6.94404 23.9382C6.98635 23.8747 7.01455 23.8112 7.04276 23.7407C7.07096 23.6773 7.09917 23.6138 7.11327 23.5362C7.12737 23.4657 7.14148 23.3952 7.14148 23.3247C7.14148 23.2542 7.11327 23.0426 7.05686 22.6689C7.00045 22.3023 6.97224 22.0696 6.97224 21.9708C6.97224 21.6606 7.04276 21.4138 7.19789 21.2375C7.35301 21.0612 7.50109 20.9696 7.65622 20.9696H8.46712C8.53058 20.9696 8.6293 20.9343 8.77737 20.8497C8.82673 20.7369 8.86904 20.6452 8.89724 20.5606C8.9325 20.476 8.9466 20.4125 8.96071 20.3843C8.97481 20.342 8.98891 20.2997 9.00301 20.2644C9.03122 20.2151 9.06648 20.1587 9.11583 20.1023C9.05942 20.0317 9.03122 19.9401 9.03122 19.8273C9.03122 19.7497 9.03122 19.6792 9.04532 19.6369C9.04532 19.383 9.16519 19.0234 9.41904 18.551L9.66583 18.1067C9.87032 17.726 10.0254 17.4439 10.1383 17.1619C10.2581 16.8798 10.3851 16.4567 10.5261 15.8926C10.6389 15.3991 10.9069 14.9055 11.3299 14.4119L11.8588 13.7773C12.2254 13.3542 12.4652 13.0016 12.5992 12.7196C12.7331 12.4375 12.8037 12.0849 12.8037 11.8029C12.8037 11.6619 12.7684 11.2388 12.6908 10.5337C12.6203 9.82854 12.5851 9.12341 12.5851 8.48879C12.5851 7.9952 12.6274 7.64264 12.719 7.29008C12.8107 6.93751 12.9729 6.58495 13.2126 6.3029C13.4242 6.02085 13.7062 5.73879 14.1293 5.59777C14.5524 5.45674 15.046 5.38623 15.6101 5.38623C15.8216 5.38623 16.0331 5.38623 16.2447 5.45674C16.4562 5.45674 16.7383 5.52726 17.0908 5.66828C17.3729 5.80931 17.6549 5.95033 17.8665 6.16187C18.1485 6.37341 18.3601 6.72597 18.5716 7.07854C18.7126 7.50162 18.8537 7.92469 18.9242 8.48879C18.9947 8.84136 18.9947 9.19392 19.0652 9.68751C19.0652 10.1106 19.1357 10.3926 19.1357 10.6042C19.2062 10.8157 19.2062 11.0978 19.2767 11.4503C19.3472 11.7324 19.4178 12.0144 19.5588 12.226C19.6998 12.508 19.8408 12.7901 20.0524 13.0721C20.2639 13.4247 20.546 13.7773 20.828 14.2003C21.4626 14.9055 21.9562 15.6811 22.2383 16.4567C22.5908 17.1619 22.8024 18.0785 22.8024 19.0587C22.8024 19.5452 22.7319 20.0176 22.5908 20.476C22.7319 20.476 22.8024 20.5324 22.8729 20.6311C22.9434 20.7298 23.0139 20.9414 23.0844 21.2728L23.1549 21.7946C23.2254 21.9497 23.296 22.0978 23.5075 22.2247C23.6485 22.3516 23.7896 22.4574 24.0011 22.542C24.1421 22.6125 24.3537 22.7112 24.4947 22.8382C24.6357 22.9792 24.7062 23.1273 24.7062 23.2824C24.7062 23.5221 24.6357 23.6984 24.4947 23.8253C24.3537 23.9664 24.2126 24.0651 24.0011 24.1285C23.8601 24.1991 23.578 24.3401 23.1549 24.5389C22.8024 24.7476 22.4498 25.0008 22.0972 25.3005L21.3921 25.9005C21.1101 26.1755 20.828 26.373 20.6165 26.4928C20.4049 26.6198 20.1229 26.6832 19.8408 26.6832L19.3472 26.6268C18.7831 26.4787 18.4306 26.1967 18.219 25.7666C17.0908 25.6298 16.1742 25.5621 15.6101 25.5621" fill="black"/>
</g>
<defs>
<clipPath id="clip0_3509_49810">
<rect width="18.7564" height="22" fill="white" transform="translate(6.2627 5)"/>
</clipPath>
</defs>
</svg>
