<svg width="32" height="32" viewBox="0 0 32 32" fill="none" xmlns="http://www.w3.org/2000/svg">
<rect width="32" height="32" fill="white"/>
<path d="M15.1963 8.13075C15.1963 8.23332 15.0937 8.23332 15.0937 8.23332H14.9911C14.8886 8.23332 14.8886 8.13075 14.786 8.02819C14.786 8.02819 14.6834 7.92563 14.6834 7.82306C14.6834 7.7205 14.6834 7.7205 14.786 7.7205L14.9911 7.82306C15.0937 7.92563 15.1963 8.02819 15.1963 8.13075ZM13.3501 7.10511C13.3501 6.59229 13.145 6.2846 12.8373 6.2846C12.8373 6.2846 12.8373 6.38716 12.7347 6.38716V6.59229H13.0424C13.0424 6.79742 13.145 6.89998 13.145 7.10511H13.3501ZM16.9399 6.59229C17.145 6.59229 17.2475 6.79742 17.3501 7.10511H17.5552C17.4527 7.00255 17.4527 6.89998 17.4527 6.79742C17.4527 6.69486 17.4527 6.59229 17.3501 6.48973C17.2475 6.38716 17.145 6.2846 17.0424 6.2846C17.0424 6.2846 16.9399 6.38716 16.8373 6.38716C16.8373 6.48973 16.9399 6.48973 16.9399 6.59229ZM13.8629 8.23332C13.7604 8.23332 13.7604 8.23332 13.7604 8.13075C13.7604 8.02819 13.7604 7.92563 13.8629 7.82306C14.0681 7.82306 14.1706 7.7205 14.1706 7.7205C14.2732 7.7205 14.2732 7.82306 14.2732 7.82306C14.2732 7.92563 14.1706 8.02819 13.9655 8.23332H13.8629ZM12.7347 8.13075C12.3245 7.92563 12.2219 7.61793 12.2219 7.10511C12.2219 6.79742 12.2219 6.59229 12.427 6.38716C12.5296 6.18204 12.7347 6.07947 12.9399 6.07947C13.145 6.07947 13.2475 6.18204 13.4527 6.38716C13.5552 6.69486 13.6578 7.00255 13.6578 7.31024V7.51537H13.7604V7.41281C13.8629 7.41281 13.8629 7.20768 13.8629 6.79742C13.8629 6.48973 13.8629 6.18204 13.6578 5.87434C13.4527 5.56665 13.2475 5.36152 12.8373 5.36152C12.5296 5.36152 12.2219 5.56665 12.1193 5.87434C11.9142 6.2846 11.8732 6.59229 11.8732 7.10511C11.8732 7.51537 12.0168 7.92563 12.427 8.33588C12.5296 8.23332 12.6322 8.23332 12.7347 8.13075ZM25.5552 22.5923C25.6578 22.5923 25.6578 22.5513 25.6578 22.459C25.6578 22.2333 25.5552 21.9667 25.2475 21.6692C24.9399 21.3615 24.427 21.1667 23.8116 21.0846C23.7091 21.0743 23.6065 21.0743 23.6065 21.0743C23.504 21.0538 23.504 21.0538 23.4014 21.0538C23.2988 21.0436 23.0937 21.0231 22.9911 21.0026C23.2988 20.0487 23.4014 19.2077 23.4014 18.4692C23.4014 17.4436 23.1963 16.7256 22.786 16.1102C22.3757 15.4949 21.9655 15.1872 21.4527 15.0846C21.3501 15.1872 21.3501 15.1872 21.3501 15.2897C21.8629 15.4949 22.3757 15.9051 22.6834 16.5205C22.9911 17.2384 23.0937 17.8538 23.0937 18.5718C23.0937 19.1461 22.9911 19.9974 22.5809 21.0846C22.1706 21.2487 21.7604 21.6282 21.4527 22.2231C21.4527 22.3154 21.4527 22.3667 21.5552 22.3667C21.5552 22.3667 21.6578 22.2743 21.7604 22.1C21.9655 21.9256 22.0681 21.7513 22.2732 21.5769C22.5809 21.4025 22.786 21.3102 23.0937 21.3102C23.6065 21.3102 24.1193 21.382 24.427 21.5256C24.8373 21.659 25.0424 21.8026 25.145 21.9667C25.2475 22.1205 25.3501 22.2641 25.4527 22.3974C25.4527 22.5308 25.5552 22.5923 25.5552 22.5923ZM16.1193 7.7205C16.0168 7.61793 16.0168 7.41281 16.0168 7.20768C16.0168 6.79742 16.0168 6.59229 16.2219 6.2846C16.427 6.07947 16.6322 5.97691 16.8373 5.97691C17.145 5.97691 17.3501 6.18204 17.5552 6.38716C17.6578 6.69486 17.7604 6.89998 17.7604 7.20768C17.7604 7.7205 17.5552 8.02819 17.145 8.13075C17.145 8.13075 17.2475 8.23332 17.3501 8.23332C17.5552 8.23332 17.6578 8.33588 17.8629 8.43845C17.9655 7.82306 18.0681 7.41281 18.0681 6.89998C18.0681 6.2846 17.9655 5.87434 17.7604 5.56665C17.4527 5.25896 17.145 5.1564 16.7347 5.1564C16.427 5.1564 16.1193 5.25896 15.8116 5.46409C15.6065 5.77178 15.504 5.97691 15.504 6.2846C15.504 6.79742 15.6065 7.20768 15.8116 7.61793C15.9142 7.61793 16.0168 7.7205 16.1193 7.7205ZM17.3501 9.36152C16.0168 10.2846 14.9911 10.6949 14.1706 10.6949C13.4527 10.6949 12.7347 10.3872 12.1193 9.87434C12.2219 10.0795 12.3245 10.2846 12.427 10.3872L13.0424 11.0025C13.4527 11.4128 13.9655 11.6179 14.4783 11.6179C15.1963 11.6179 16.0168 11.2077 17.0424 10.4897L17.9655 9.87434C18.1706 9.66922 18.3757 9.46409 18.3757 9.15639C18.3757 9.05383 18.3757 8.95127 18.2732 8.95127C18.1706 8.74614 17.6578 8.43845 16.6322 8.13075C15.7091 7.7205 14.9911 7.51537 14.5809 7.51537C14.2732 7.51537 13.7604 7.7205 13.0424 8.13075C12.427 8.54101 12.0168 8.95127 12.0168 9.36152C12.0168 9.36152 12.1193 9.46409 12.2219 9.66922C12.8373 10.182 13.4527 10.4897 14.0681 10.4897C14.8886 10.4897 15.9142 10.0795 17.2475 9.05383V9.25896C17.3501 9.25896 17.3501 9.36152 17.3501 9.36152ZM19.7091 30.0795C20.1193 30.8508 20.8373 31.2384 21.6578 31.2384C21.8629 31.2384 22.0681 31.2077 22.2732 31.1461C22.4783 31.1051 22.6834 31.0333 22.786 30.9513C22.8886 30.8795 22.9911 30.8077 23.0937 30.7256C23.2988 30.6538 23.2988 30.6025 23.4014 30.5513L25.145 29.0436C25.5552 28.7164 25.9655 28.4302 26.4783 28.182C26.8886 27.9359 27.2988 27.7718 27.504 27.6795C27.8116 27.5974 28.0168 27.4743 28.2219 27.3102C28.3245 27.1564 28.427 26.9615 28.427 26.7154C28.427 26.4179 28.2219 26.1923 28.0168 26.0282C27.8116 25.8641 27.6065 25.7513 27.4014 25.6795C27.1963 25.6077 26.9911 25.4436 26.6834 25.1667C26.4783 24.9 26.2732 24.5308 26.1706 24.0487L26.0681 23.4538C25.9655 23.1769 25.9655 22.9718 25.8629 22.859C25.8629 22.8282 25.8629 22.8179 25.7604 22.8179C25.6578 22.8179 25.4527 22.9102 25.3501 23.0846C25.145 23.259 24.9399 23.4538 24.7347 23.659C24.6322 23.8641 24.3245 24.0487 24.1193 24.2231C23.8116 24.3974 23.504 24.4897 23.2988 24.4897C22.4783 24.4897 22.0681 24.2641 21.7604 23.8231C21.5552 23.4949 21.4527 23.1154 21.3501 22.6846C21.145 22.5102 21.0424 22.4179 20.8373 22.4179C20.3245 22.4179 20.1193 22.9513 20.1193 24.0282V27.2179C20.1193 27.3102 20.0168 27.5154 20.0168 27.8333C19.9142 28.1513 19.9142 28.5123 19.9142 28.9205L19.7091 30.059V30.0764M4.83729 29.5338C5.79113 29.6733 6.88857 29.9718 8.1296 30.4272C9.37062 30.8784 10.1296 31.1143 10.4065 31.1143C11.1245 31.1143 11.7193 30.7964 12.2116 30.182C12.3142 29.9831 12.3142 29.7492 12.3142 29.4805C12.3142 28.5113 11.7296 27.2856 10.5604 25.7984L9.86293 24.8651C9.71934 24.6702 9.54498 24.3728 9.31934 23.9728C9.10396 23.5728 8.90908 23.2651 8.75524 23.0497C8.6219 22.8138 8.40652 22.5779 8.1296 22.342C7.86293 22.1061 7.55524 21.9523 7.21678 21.8702C6.78601 21.9523 6.48857 22.0959 6.34498 22.2908C6.20139 22.4856 6.11934 22.701 6.09883 22.9267C6.06806 23.142 6.00652 23.2856 5.90396 23.3574C5.80139 23.419 5.62703 23.4702 5.39113 23.5215C5.33985 23.5215 5.24755 23.5215 5.11421 23.5318H4.83729C4.2937 23.5318 3.92447 23.5933 3.7296 23.6959C3.47319 23.9933 3.33985 24.3318 3.33985 24.6908C3.33985 24.8549 3.38088 25.1318 3.46293 25.5215C3.54498 25.901 3.58601 26.2087 3.58601 26.4241C3.58601 26.8446 3.46293 27.2651 3.20652 27.6856C2.95011 28.1267 2.81678 28.4549 2.81678 28.6887C2.91934 29.0867 3.59626 29.3666 4.83729 29.5308M8.25267 20.2077C8.25267 19.5 8.43729 18.7205 8.81678 17.7974C9.18601 16.8743 9.55524 16.259 9.91421 15.8487C9.8937 15.7461 9.84242 15.7461 9.76037 15.7461L9.6578 15.6436C9.36037 15.9513 9.00139 16.6692 8.57062 17.6949C8.13985 18.6179 7.91421 19.4692 7.91421 20.0949C7.91421 20.5564 8.02703 20.9564 8.23216 21.3051C8.4578 21.6436 9.00139 22.1359 9.86293 22.7615L10.9501 23.4692C12.1091 24.4743 12.7245 25.1718 12.7245 25.582C12.7245 25.7974 12.6219 26.0128 12.3142 26.2487C12.1091 26.4949 11.8322 26.6179 11.5963 26.6179C11.5758 26.6179 11.5655 26.6384 11.5655 26.6897C11.5655 26.7 11.6681 26.9051 11.8834 27.3051C12.3142 27.8897 13.2373 28.1769 14.4681 28.1769C16.7245 28.1769 18.4681 27.2538 19.8014 25.4077C19.8014 24.8949 19.8014 24.5769 19.6988 24.4436V24.0641C19.6988 23.3974 19.8014 22.8949 20.0065 22.5667C20.2116 22.2384 20.4168 22.0846 20.7245 22.0846C20.9296 22.0846 21.1347 22.1564 21.3399 22.3102C21.4424 21.5205 21.4424 20.8333 21.4424 20.2179C21.4424 19.2846 21.4424 18.5154 21.2373 17.7974C21.1347 17.182 20.9296 16.6692 20.7245 16.259L20.1091 15.3359C19.904 15.0282 19.8014 14.7205 19.5963 14.4128C19.4937 14.0025 19.3911 13.6949 19.3911 13.182C19.0834 12.6692 18.8783 12.1564 18.5706 11.6436C18.3655 11.1308 18.1604 10.6179 17.9552 10.2077L17.0322 10.9256C16.0065 11.6436 15.186 11.9513 14.4681 11.9513C13.8527 11.9513 13.3399 11.8487 13.0322 11.4384L12.4168 10.9256C12.4168 11.2333 12.3142 11.6436 12.1091 12.0538L11.4629 13.2846C11.1758 14.0025 11.0219 14.4128 10.9911 14.7205C10.9501 14.9256 10.9193 15.1308 10.8988 15.1308L10.1296 16.6692C9.29883 18.2077 8.87831 19.6333 8.87831 20.8128C8.87831 21.0487 8.89883 21.2949 8.93985 21.541C8.47831 21.2231 8.25267 20.782 8.25267 20.2077ZM15.5963 29.9102C14.2629 29.9102 13.2373 30.0908 12.5193 30.4487V30.4179C12.0065 31.0333 11.4322 31.3513 10.6322 31.3513C10.1296 31.3513 9.33985 31.1564 8.27319 30.7667C7.19626 30.3974 6.24242 30.1143 5.41165 29.9277C5.3296 29.9041 5.14498 29.8692 4.84755 29.822C4.56037 29.7759 4.2937 29.7287 4.0578 29.6815C3.84242 29.6354 3.59626 29.5656 3.3296 29.4713C3.07319 29.3902 2.86806 29.2846 2.71421 29.1564C2.57267 29.0272 2.50293 28.8815 2.50293 28.7184C2.50293 28.5543 2.5378 28.379 2.60755 28.1923C2.67319 28.0795 2.74498 27.9667 2.81678 27.8641C2.88857 27.7513 2.95011 27.6487 2.99113 27.5461C3.05267 27.4538 3.0937 27.3615 3.13472 27.259C3.17575 27.1667 3.21678 27.0743 3.23729 26.9615C3.2578 26.859 3.27831 26.7564 3.27831 26.6538C3.27831 26.5513 3.23729 26.2436 3.15524 25.7C3.07319 25.1667 3.03216 24.8282 3.03216 24.6846C3.03216 24.2333 3.13472 23.8743 3.36037 23.6179C3.58601 23.3615 3.80139 23.2282 4.02703 23.2282H5.20652C5.29883 23.2282 5.44242 23.1769 5.6578 23.0538C5.7296 22.8897 5.79113 22.7564 5.83216 22.6333C5.88344 22.5102 5.90396 22.4179 5.92447 22.3769C5.94498 22.3154 5.96549 22.2538 5.98601 22.2025C6.02703 22.1308 6.07831 22.0487 6.15011 21.9667C6.06806 21.8641 6.02703 21.7308 6.02703 21.5667C6.02703 21.4538 6.02703 21.3513 6.04754 21.2897C6.04754 20.9205 6.2219 20.3974 6.59114 19.7102L6.95011 19.0641C7.24755 18.5102 7.47319 18.1 7.63729 17.6897C7.81165 17.2795 7.99626 16.6641 8.20139 15.8436C8.36549 15.1256 8.75524 14.4077 9.37062 13.6897L10.1399 12.7667C10.6732 12.1513 11.0219 11.6384 11.2168 11.2282C11.4116 10.8179 11.5142 10.3051 11.5142 9.89486C11.5142 9.68973 11.4629 9.07434 11.3501 8.0487C11.2475 7.02306 11.1963 5.99742 11.1963 5.07434C11.1963 4.3564 11.2578 3.84358 11.3911 3.33075C11.5245 2.81793 11.7604 2.30511 12.1091 1.89486C12.4168 1.4846 12.827 1.07434 13.4424 0.869216C14.0578 0.664087 14.7758 0.561523 15.5963 0.561523C15.904 0.561523 16.2116 0.561523 16.5193 0.664088C16.827 0.664088 17.2373 0.766652 17.7501 0.97178C18.1604 1.17691 18.5706 1.38204 18.8783 1.68973C19.2886 1.99742 19.5963 2.51024 19.904 3.02306C20.1091 3.63845 20.3142 4.25383 20.4168 5.07434C20.5193 5.58716 20.5193 6.09999 20.6219 6.81793C20.6219 7.43332 20.7245 7.84358 20.7245 8.15127C20.827 8.45896 20.827 8.86922 20.9296 9.38204C21.0322 9.79229 21.1347 10.2025 21.3399 10.5102C21.545 10.9205 21.7501 11.3308 22.0578 11.741C22.3655 12.2538 22.7757 12.7667 23.186 13.382C24.1091 14.4077 24.827 15.5359 25.2373 16.6641C25.7501 17.6897 26.0578 19.0231 26.0578 20.4487C26.0578 21.1564 25.9552 21.8436 25.7501 22.5102C25.9552 22.5102 26.0578 22.5923 26.1604 22.7359C26.2629 22.8795 26.3655 23.1872 26.4681 23.6692L26.5706 24.4282C26.6732 24.6538 26.7757 24.8692 27.0834 25.0538C27.2886 25.2384 27.4937 25.3923 27.8014 25.5154C28.0065 25.6179 28.3142 25.7615 28.5193 25.9461C28.7245 26.1513 28.827 26.3667 28.827 26.5923C28.827 26.941 28.7245 27.1974 28.5193 27.382C28.3142 27.5872 28.1091 27.7308 27.8014 27.8231C27.5963 27.9256 27.186 28.1308 26.5706 28.42C26.0578 28.7236 25.545 29.0918 25.0322 29.5277L24.0065 30.4005C23.5963 30.8005 23.186 31.0877 22.8783 31.262C22.5706 31.4467 22.1604 31.539 21.7501 31.539L21.0322 31.4569C20.2116 31.2415 19.6988 30.8313 19.3911 30.2056C17.7501 30.0067 16.4168 29.9082 15.5963 29.9082" fill="black"/>
</svg>
