<svg width="32" height="32" viewBox="0 0 32 32" fill="none" xmlns="http://www.w3.org/2000/svg">
<path d="M0 16C0 7.16344 7.16344 0 16 0V0C24.8366 0 32 7.16344 32 16V16C32 24.8366 24.8366 32 16 32V32C7.16344 32 0 24.8366 0 16V16Z" fill="white"/>
<g clip-path="url(#clip0_3509_49807)">
<path d="M15.2235 18.3553C15.2235 20.2059 14.2594 21.3706 12.7194 21.3706C11.1794 21.3706 10.2153 20.1994 10.2153 18.3553C10.2153 16.4982 11.1794 15.3335 12.7194 15.3335C14.2594 15.3335 15.2235 16.4982 15.2235 18.3553ZM17.3718 11.8265L16.6988 11.8718C16.3171 11.8976 16.1488 12.0335 16.1488 12.2794C16.1488 12.5382 16.3624 12.6806 16.66 12.6806C17.0676 12.6806 17.3718 12.4153 17.3718 12.0594V11.8265ZM27 16C27 22.1406 22.1406 27 16 27C9.85941 27 5 22.1406 5 16C5 9.85941 9.85941 5 16 5C22.1406 5 27 9.85941 27 16ZM18.5494 11.6906C18.5494 12.5835 19.0412 13.1271 19.8435 13.1271C20.5229 13.1271 20.95 12.7453 21.0212 12.2018H20.4906C20.4194 12.4994 20.1865 12.6612 19.8435 12.6612C19.3906 12.6612 19.1124 12.2924 19.1124 11.6906C19.1124 11.0953 19.3906 10.7394 19.8435 10.7394C20.2059 10.7394 20.4324 10.9465 20.4906 11.2118H21.0212C20.95 10.6812 20.5359 10.28 19.8435 10.28C19.0412 10.2735 18.5494 10.8171 18.5494 11.6906ZM11.1535 10.3318V13.0753H11.6971V11.3929C11.6971 11.0371 11.9494 10.7524 12.2794 10.7524C12.6029 10.7524 12.81 10.9465 12.81 11.2571V13.0753H13.3406V11.3412C13.3406 11.0112 13.5671 10.7524 13.9229 10.7524C14.2788 10.7524 14.4535 10.9335 14.4535 11.3153V13.0753H14.9971V11.1794C14.9971 10.61 14.6735 10.2735 14.1171 10.2735C13.7353 10.2735 13.4182 10.4676 13.2824 10.7653H13.2371C13.1141 10.4676 12.8553 10.2735 12.48 10.2735C12.1112 10.2735 11.8329 10.4547 11.7165 10.7653H11.6776V10.3253L11.1535 10.3318ZM16.1876 18.3553C16.1876 15.9676 14.8547 14.4665 12.7194 14.4665C10.5841 14.4665 9.25118 15.9676 9.25118 18.3553C9.25118 20.7429 10.5841 22.2376 12.7194 22.2376C14.8547 22.2376 16.1876 20.7365 16.1876 18.3553ZM16.5241 13.1206C16.8865 13.1206 17.1841 12.9653 17.3524 12.6871H17.3976V13.0753H17.9218V11.1988C17.9218 10.6229 17.5335 10.28 16.8412 10.28C16.2135 10.28 15.7735 10.5841 15.7153 11.0435H16.2394C16.2976 10.8429 16.5112 10.7329 16.8153 10.7329C17.1841 10.7329 17.3782 10.9012 17.3782 11.2053V11.4447L16.6341 11.49C15.9806 11.5288 15.6118 11.8135 15.6118 12.3118C15.6053 12.8035 15.9935 13.1206 16.5241 13.1206ZM22.4576 19.9729C22.4576 18.9053 21.8365 18.2841 20.2706 17.9412L19.4359 17.76C18.4071 17.5335 18.0059 17.1259 18.0059 16.5371C18.0059 15.7735 18.7306 15.3141 19.6688 15.3141C20.6524 15.3141 21.2994 15.8188 21.3835 16.6471H22.3218C22.2765 15.3724 21.1959 14.4729 19.6947 14.4729C18.1353 14.4729 17.0418 15.3465 17.0418 16.5824C17.0418 17.65 17.6953 18.3359 19.2029 18.6659L20.0376 18.8471C21.0794 19.0735 21.5 19.4941 21.5 20.1218C21.5 20.8594 20.7559 21.3965 19.74 21.3965C18.6594 21.3965 17.9088 20.9047 17.7988 20.0959H16.8606C16.9512 21.3965 18.0447 22.2376 19.6882 22.2376C21.3641 22.2376 22.4576 21.3641 22.4576 19.9729Z" fill="black"/>
</g>
<defs>
<clipPath id="clip0_3509_49807">
<rect width="22" height="22" fill="white" transform="translate(5 5)"/>
</clipPath>
</defs>
</svg>
