<svg width="32" height="32" viewBox="0 0 32 32" fill="none" xmlns="http://www.w3.org/2000/svg">
<rect width="32" height="32" fill="white"/>
<g clip-path="url(#clip0_2428_93080)">
<path d="M14.9412 19.2118C14.9412 21.7353 13.6265 23.3235 11.5265 23.3235C9.42647 23.3235 8.11176 21.7265 8.11176 19.2118C8.11176 16.6794 9.42647 15.0912 11.5265 15.0912C13.6265 15.0912 14.9412 16.6794 14.9412 19.2118ZM17.8706 10.3088L16.9529 10.3706C16.4324 10.4059 16.2029 10.5912 16.2029 10.9265C16.2029 11.2794 16.4941 11.4735 16.9 11.4735C17.4559 11.4735 17.8706 11.1118 17.8706 10.6265V10.3088ZM31 16C31 24.3735 24.3735 31 16 31C7.62647 31 1 24.3735 1 16C1 7.62647 7.62647 1 16 1C24.3735 1 31 7.62647 31 16ZM19.4765 10.1235C19.4765 11.3412 20.1471 12.0824 21.2412 12.0824C22.1676 12.0824 22.75 11.5618 22.8471 10.8206H22.1235C22.0265 11.2265 21.7088 11.4471 21.2412 11.4471C20.6235 11.4471 20.2441 10.9441 20.2441 10.1235C20.2441 9.31176 20.6235 8.82647 21.2412 8.82647C21.7353 8.82647 22.0441 9.10882 22.1235 9.47059H22.8471C22.75 8.74706 22.1853 8.2 21.2412 8.2C20.1471 8.19118 19.4765 8.93235 19.4765 10.1235ZM9.39118 8.27059V12.0118H10.1324V9.71765C10.1324 9.23235 10.4765 8.84412 10.9265 8.84412C11.3676 8.84412 11.65 9.10882 11.65 9.53235V12.0118H12.3735V9.64706C12.3735 9.19706 12.6824 8.84412 13.1676 8.84412C13.6529 8.84412 13.8912 9.09118 13.8912 9.61176V12.0118H14.6324V9.42647C14.6324 8.65 14.1912 8.19118 13.4324 8.19118C12.9118 8.19118 12.4794 8.45588 12.2941 8.86176H12.2324C12.0647 8.45588 11.7118 8.19118 11.2 8.19118C10.6971 8.19118 10.3176 8.43824 10.1588 8.86176H10.1059V8.26176L9.39118 8.27059ZM16.2559 19.2118C16.2559 15.9559 14.4382 13.9088 11.5265 13.9088C8.61471 13.9088 6.79706 15.9559 6.79706 19.2118C6.79706 22.4676 8.61471 24.5059 11.5265 24.5059C14.4382 24.5059 16.2559 22.4588 16.2559 19.2118ZM16.7147 12.0735C17.2088 12.0735 17.6147 11.8618 17.8441 11.4824H17.9059V12.0118H18.6206V9.45294C18.6206 8.66765 18.0912 8.2 17.1471 8.2C16.2912 8.2 15.6912 8.61471 15.6118 9.24118H16.3265C16.4059 8.96765 16.6971 8.81765 17.1118 8.81765C17.6147 8.81765 17.8794 9.04706 17.8794 9.46177V9.78824L16.8647 9.85C15.9735 9.90294 15.4706 10.2912 15.4706 10.9706C15.4618 11.6412 15.9912 12.0735 16.7147 12.0735ZM24.8059 21.4176C24.8059 19.9618 23.9588 19.1147 21.8235 18.6471L20.6853 18.4C19.2824 18.0912 18.7353 17.5353 18.7353 16.7324C18.7353 15.6912 19.7235 15.0647 21.0029 15.0647C22.3441 15.0647 23.2265 15.7529 23.3412 16.8824H24.6206C24.5588 15.1441 23.0853 13.9176 21.0382 13.9176C18.9118 13.9176 17.4206 15.1088 17.4206 16.7941C17.4206 18.25 18.3118 19.1853 20.3676 19.6353L21.5059 19.8824C22.9265 20.1912 23.5 20.7647 23.5 21.6206C23.5 22.6265 22.4853 23.3588 21.1 23.3588C19.6265 23.3588 18.6029 22.6882 18.4529 21.5853H17.1735C17.2971 23.3588 18.7882 24.5059 21.0294 24.5059C23.3147 24.5059 24.8059 23.3147 24.8059 21.4176Z" fill="#1D1D1F"/>
</g>
<defs>
<clipPath id="clip0_2428_93080">
<rect width="30" height="30" fill="white" transform="translate(1 1)"/>
</clipPath>
</defs>
</svg>
